<?xml version="1.0" encoding="UTF-8"?>
<svg version="1.1" xmlns="http://www.w3.org/2000/svg" width="432" height="234">
<path d="M0 0 C0.95374512 0.18626953 1.90749023 0.37253906 2.89013672 0.56445312 C5.31280269 1.18481857 7.26742566 2.00646347 9.4453125 3.21875 C10.03736387 17.23745568 10.54538581 31.2485647 10.5703125 45.28125 C10.57708008 46.86667603 10.57708008 46.86667603 10.58398438 48.48413086 C10.58205078 49.46003174 10.58011719 50.43593262 10.578125 51.44140625 C10.57699707 52.29484619 10.57586914 53.14828613 10.57470703 54.02758789 C10.4453125 56.21875 10.4453125 56.21875 9.4453125 59.21875 C6.4753125 59.21875 3.5053125 59.21875 0.4453125 59.21875 C-1.22475642 55.87861216 -1.87341478 54.05620263 -2.4296875 50.53125 C-3.85250043 42.99478775 -6.58594626 37.07476646 -11.5546875 31.21875 C-11.5546875 30.55875 -11.5546875 29.89875 -11.5546875 29.21875 C-12.2146875 29.21875 -12.8746875 29.21875 -13.5546875 29.21875 C-13.5546875 28.55875 -13.5546875 27.89875 -13.5546875 27.21875 C-14.06128906 26.96996094 -14.56789063 26.72117188 -15.08984375 26.46484375 C-17.0701405 25.46371116 -19.03240014 24.42693811 -20.98828125 23.37890625 C-38.89073274 13.91342293 -58.38814374 10.31356162 -78.2421875 15.90625 C-83.46647233 17.62868088 -87.93960564 19.93642885 -92.53125 22.94921875 C-94.5546875 24.21875 -94.5546875 24.21875 -97.5546875 25.21875 C-98.28792546 27.23383358 -98.28792546 27.23383358 -98.5546875 29.21875 C-97.8740625 29.71375 -97.1934375 30.20875 -96.4921875 30.71875 C-85.09133357 40.42160441 -73.03480101 56.2622958 -69.92480469 71.25537109 C-68.77565598 74.53088941 -68.77565598 74.53088941 -65.24853516 75.95043945 C-63.82989052 76.43490747 -62.40237451 76.893873 -60.96875 77.33203125 C-60.20392303 77.58766342 -59.43909607 77.84329559 -58.65109253 78.10667419 C-57.01456081 78.65187109 -55.37459756 79.18685467 -53.73168945 79.71252441 C-49.46999336 81.07974893 -45.2367153 82.53025141 -41 83.97265625 C-39.75546051 84.39337906 -39.75546051 84.39337906 -38.48577881 84.82260132 C-16.31751652 92.35987699 6.15179585 102.85150405 17.0390625 124.8828125 C22.86575826 138.70502966 23.80323342 155.12247206 18.70703125 169.3203125 C15.37225946 176.98099569 11.12934105 184.01623293 4.4453125 189.21875 C3.7853125 189.21875 3.1253125 189.21875 2.4453125 189.21875 C2.4453125 188.55875 2.4453125 187.89875 2.4453125 187.21875 C1.1253125 187.54875 -0.1946875 187.87875 -1.5546875 188.21875 C-1.24724609 187.25775391 -1.24724609 187.25775391 -0.93359375 186.27734375 C-0.52947266 184.97990234 -0.52947266 184.97990234 -0.1171875 183.65625 C0.28306641 182.38587891 0.28306641 182.38587891 0.69140625 181.08984375 C4.9327177 164.93769909 3.23064747 147.51005805 -4.7421875 132.84375 C-17.90306641 112.08684585 -42.46356115 104.04219518 -64.5546875 96.21875 C-64.2246875 100.50875 -63.8946875 104.79875 -63.5546875 109.21875 C-62.2140625 109.59 -60.8734375 109.96125 -59.4921875 110.34375 C-40.21260248 116.21736123 -20.64033522 125.37507323 -9.99609375 143.37890625 C-4.06583996 155.06263119 -3.86401445 168.75288426 -7.44921875 181.2421875 C-12.38330715 194.52761281 -20.08734075 205.26417562 -32.5546875 212.21875 C-44.50011438 217.40287326 -55.84791014 219.59755999 -68.8046875 219.53125 C-69.93640381 219.52706055 -71.06812012 219.52287109 -72.23413086 219.51855469 C-87.83411725 219.31330607 -102.93136402 216.94772713 -118.0234375 213.0859375 C-123.68278018 211.69614317 -128.70982282 211.12872994 -134.50390625 211.37890625 C-136.5546875 211.21875 -136.5546875 211.21875 -139.5546875 209.21875 C-140.2421875 206.09375 -140.2421875 206.09375 -140.5546875 203.21875 C-141.70582031 203.81042969 -142.85695313 204.40210938 -144.04296875 205.01171875 C-152.31164705 209.15745693 -160.46591014 212.85288699 -169.4296875 215.21875 C-170.15196533 215.41364014 -170.87424316 215.60853027 -171.6184082 215.80932617 C-199.18608221 222.57225774 -239.30006353 216.1725196 -261.5546875 215.21875 C-261.5546875 143.93875 -261.5546875 72.65875 -261.5546875 -0.78125 C-259.33472527 -1.89123111 -257.99786513 -1.96612107 -255.53344727 -2.07836914 C-254.69885986 -2.11831497 -253.86427246 -2.1582608 -253.00439453 -2.19941711 C-252.09415527 -2.23802353 -251.18391602 -2.27662994 -250.24609375 -2.31640625 C-249.30032471 -2.35956467 -248.35455566 -2.40272308 -247.38012695 -2.44718933 C-244.29271098 -2.58545042 -241.20503791 -2.71557676 -238.1171875 -2.84375 C-236.54878616 -2.91003601 -236.54878616 -2.91003601 -234.94869995 -2.97766113 C-187.17532367 -4.97512861 -187.17532367 -4.97512861 -171.5546875 -1.78125 C-170.34425781 -1.53632812 -169.13382812 -1.29140625 -167.88671875 -1.0390625 C-153.711966 2.28062053 -141.45767548 8.55708893 -130.5546875 18.21875 C-129.36954889 19.18000205 -128.18239606 20.13878266 -126.9921875 21.09375 C-124.5546875 23.21875 -124.5546875 23.21875 -123.5546875 25.21875 C-123.12800781 24.38472656 -122.70132813 23.55070312 -122.26171875 22.69140625 C-115.47615172 10.4773856 -106.05554472 3.35338752 -92.5546875 -0.78125 C-91.224375 -1.19117188 -91.224375 -1.19117188 -89.8671875 -1.609375 C-60.39904127 -9.7771764 -29.45907638 -5.77441478 0 0 Z M-234.5546875 16.21875 C-241.53086514 24.04379882 -238.96664098 41.37281923 -239.1796875 51.28125 C-239.20181305 52.29354675 -239.2239386 53.30584351 -239.24673462 54.34881592 C-239.69081301 76.11678414 -239.51885211 97.87868462 -239.27190399 119.64793015 C-239.24247748 122.3174437 -239.21612917 124.98697228 -239.19049072 127.65652466 C-240.99442281 162.89522937 -240.99442281 162.89522937 -232.9921875 196.09375 C-224.89549259 203.1524071 -212.61069926 202.42832382 -202.5546875 202.46875 C-201.30300781 202.489375 -200.05132812 202.51 -198.76171875 202.53125 C-186.52491609 202.5819725 -175.77794987 200.60083924 -164.9921875 194.71875 C-164.18716797 194.28804199 -163.38214844 193.85733398 -162.55273438 193.41357422 C-155.22169957 189.32985327 -149.23736441 184.39471484 -143.5546875 178.21875 C-143.01932373 177.65623535 -142.48395996 177.0937207 -141.93237305 176.51416016 C-139.99323648 173.28329678 -140.2156405 170.79457274 -140.26171875 167.046875 C-140.26596359 166.3644574 -140.27020844 165.68203979 -140.27458191 164.97894287 C-140.29131778 162.80846996 -140.32895791 160.63894021 -140.3671875 158.46875 C-140.38224104 156.99350303 -140.39592828 155.51824145 -140.40820312 154.04296875 C-140.44120373 150.43459156 -140.49294983 146.8267629 -140.5546875 143.21875 C-136.9246875 143.21875 -133.2946875 143.21875 -129.5546875 143.21875 C-129.5546875 144.86875 -129.5546875 146.51875 -129.5546875 148.21875 C-128.8946875 148.54875 -128.2346875 148.87875 -127.5546875 149.21875 C-124.22839217 136.35612612 -124.22839217 136.35612612 -122.5546875 123.21875 C-122.4103125 122.04570312 -122.2659375 120.87265625 -122.1171875 119.6640625 C-121.41949662 111.98805764 -121.41949662 111.98805764 -124.83203125 105.39453125 C-127.64250231 103.1122024 -130.49758058 101.15368002 -133.5546875 99.21875 C-137.28106864 96.51367332 -139.71992664 93.92306342 -142.1796875 90.03125 C-142.74945313 89.15082031 -143.31921875 88.27039063 -143.90625 87.36328125 C-148.03687239 79.48377645 -149.10538277 72.38602332 -149.0546875 63.53125 C-149.0537207 61.95537109 -149.0537207 61.95537109 -149.05273438 60.34765625 C-148.88951931 51.79729279 -147.33754981 44.89255641 -143.5546875 37.21875 C-155.21846705 21.65290602 -172.55269602 15.2191483 -190.9921875 11.53125 C-204.63636693 10.33439216 -221.86454178 10.51647864 -234.5546875 16.21875 Z M-104.5546875 38.21875 C-105.09347826 46.70470442 -103.34862925 52.41588484 -98.3046875 59.28125 C-97.7271875 59.920625 -97.1496875 60.56 -96.5546875 61.21875 C-95.8946875 60.88875 -95.2346875 60.55875 -94.5546875 60.21875 C-96.92957984 52.497033 -99.7148499 45.33189178 -103.5546875 38.21875 C-103.8846875 38.21875 -104.2146875 38.21875 -104.5546875 38.21875 Z M-135.5546875 50.21875 C-134.70982923 60.59843731 -131.55846719 68.29489692 -126.5546875 77.21875 C-125.24726266 73.29647549 -126.42402072 70.8275597 -127.7421875 67.09375 C-127.97123779 66.42593506 -128.20028809 65.75812012 -128.4362793 65.07006836 C-130.20955992 59.98625412 -132.24886417 55.08659926 -134.5546875 50.21875 C-134.8846875 50.21875 -135.2146875 50.21875 -135.5546875 50.21875 Z M-99.5546875 83.21875 C-99.54868695 85.48995764 -99.49868954 87.76108286 -99.4296875 90.03125 C-99.40648437 91.29582031 -99.38328125 92.56039062 -99.359375 93.86328125 C-98.89553769 97.45732252 -98.89553769 97.45732252 -95.6875 99.16796875 C-92.63136536 100.37775023 -92.63136536 100.37775023 -89.5546875 100.21875 C-89.50031143 98.63580218 -89.46172479 97.05230744 -89.4296875 95.46875 C-89.40648437 94.58703125 -89.38328125 93.7053125 -89.359375 92.796875 C-89.57025864 90.01321093 -89.95409241 88.49959801 -91.5546875 86.21875 C-93.48572658 85.10401866 -93.48572658 85.10401866 -95.6796875 84.46875 C-96.40414062 84.22640625 -97.12859375 83.9840625 -97.875 83.734375 C-98.42929688 83.56421875 -98.98359375 83.3940625 -99.5546875 83.21875 Z M-98.5546875 118.21875 C-98.64967529 118.92257813 -98.74466309 119.62640625 -98.8425293 120.3515625 C-101.34288434 138.53812123 -104.24111623 154.76716922 -112.96386719 171.08251953 C-115.0388479 174.92799549 -115.0388479 174.92799549 -115.5546875 179.21875 C-113.61570871 181.89273476 -113.61570871 181.89273476 -111.5546875 184.21875 C-109.66687541 184.20829482 -109.66687541 184.20829482 -107.5546875 183.21875 C-106.04551438 181.07108056 -104.86068556 179.10189506 -103.6796875 176.78125 C-103.33526611 176.11601318 -102.99084473 175.45077637 -102.63598633 174.76538086 C-94.07855926 157.64061542 -90.4166004 139.24027598 -89.5546875 120.21875 C-92.5246875 119.55875 -95.4946875 118.89875 -98.5546875 118.21875 Z M-65.5546875 129.21875 C-65.9465625 130.415 -66.3384375 131.61125 -66.7421875 132.84375 C-67.020625 133.66746094 -67.2990625 134.49117187 -67.5859375 135.33984375 C-68.2685463 137.36840295 -68.93361724 139.40290545 -69.5859375 141.44140625 C-75.42716193 158.94534566 -85.27855309 172.4621165 -98.5546875 185.21875 C-99.55711762 186.21631396 -100.55749253 187.21595281 -101.5546875 188.21875 C-102.2146875 188.87875 -102.8746875 189.53875 -103.5546875 190.21875 C-90.49504457 200.03879158 -76.60757054 203.32133927 -60.5546875 202.21875 C-49.94966795 200.54352603 -40.33077619 194.45847384 -33.5546875 186.21875 C-26.99506736 177.17099809 -26.85172177 167.91237306 -28.5546875 157.21875 C-29.46887244 154.16815461 -30.720549 151.81145195 -32.5546875 149.21875 C-32.99296875 148.56648438 -33.43125 147.91421875 -33.8828125 147.2421875 C-40.7509077 138.25816398 -52.95733513 132.54684413 -63.5546875 129.21875 C-64.2146875 129.21875 -64.8746875 129.21875 -65.5546875 129.21875 Z " fill="#FCFCFC" transform="translate(326.5546875,7.78125)"/>
<path d="M0 0 C17.1287897 -0.39731729 33.80355785 0.92522237 51 2 C51 73.28 51 144.56 51 218 C47.39346053 218.60108991 44.20063507 219.12789292 40.61865234 219.31298828 C39.81116547 219.35618195 39.00367859 219.39937561 38.17172241 219.44387817 C37.31841339 219.4856015 36.46510437 219.52732483 35.5859375 219.5703125 C34.69387604 219.61566132 33.80181458 219.66101013 32.88272095 219.70773315 C31.00523757 219.80192678 29.12766048 219.89426874 27.25 219.98486328 C24.37720839 220.12489236 21.50506003 220.27504963 18.6328125 220.42578125 C16.80471793 220.51624213 14.97659373 220.6061064 13.1484375 220.6953125 C12.29108002 220.74108429 11.43372253 220.78685608 10.55038452 220.83401489 C9.74920197 220.87090424 8.94801941 220.90779358 8.12255859 220.94580078 C7.07048721 220.99790207 7.07048721 220.99790207 5.99716187 221.05105591 C3.86568111 220.99656624 2.04319036 220.59030748 0 220 C0.17578125 218.18359375 0.17578125 218.18359375 1 216 C3.29296875 214.47265625 3.29296875 214.47265625 6.1875 213.0625 C16.71449425 207.55418905 20.55093984 201.35631371 25.01171875 190.54882812 C32.10341078 165.08320675 28.30801866 133.82951946 28.26074219 107.70922852 C28.24925699 101.30161694 28.25599151 94.89417135 28.26788712 88.48656559 C28.27514478 83.4908271 28.27280146 78.49512746 28.26763153 73.49938774 C28.26631062 71.1365704 28.26788716 68.77374938 28.27259064 66.41093636 C29.13056628 37.77415675 29.13056628 37.77415675 16.56640625 13.109375 C12.42016129 9.70150243 7.75363432 7.58835414 2.87890625 5.41015625 C0 4 0 4 -1 2 C-0.67 1.34 -0.34 0.68 0 0 Z " fill="#FDFDFD" transform="translate(4,5)"/>
<path d="M0 0 C15.71415872 0.92436228 31.32834001 10.13144454 41.9765625 21.4921875 C56.87413529 39.95597463 63.16621654 62.6695036 64 86 C64.02868164 86.78842285 64.05736328 87.5768457 64.08691406 88.38916016 C64.7103454 108.6348956 62.15845882 127.02660914 55 146 C54.34 146 53.68 146 53 146 C52.34 142.7 51.68 139.4 51 136 C51.66 136 52.32 136 53 136 C53.12375 134.865625 53.2475 133.73125 53.375 132.5625 C53.75154681 129.50709157 54.29327355 126.55817628 55 123.5625 C55.82716501 119.92667767 56.513178 116.36249265 56.79296875 112.640625 C57 110 57 110 57.55078125 106.484375 C58.40009701 99.5855624 58.40009701 99.5855624 55.75048828 93.42675781 C52.92233412 90.84781465 49.79253596 88.75685292 46.6328125 86.609375 C38.11863495 80.78134817 33.64213423 71.74346614 31 62 C30.45955792 58.04229083 30.38071608 54.1778608 30.4375 50.1875 C30.44265625 49.1459375 30.4478125 48.104375 30.453125 47.03125 C30.65341104 38.54544692 32.24535582 31.6165639 36 24 C27.17859645 11.82911615 13.73987578 5.90709849 0 1 C0 0.67 0 0.34 0 0 Z M45 37 C45.84485827 47.37968731 48.99622031 55.07614692 54 64 C55.30742484 60.07772549 54.13066678 57.6088097 52.8125 53.875 C52.58344971 53.20718506 52.35439941 52.53937012 52.1184082 51.85131836 C50.34512758 46.76750412 48.30582333 41.86784926 46 37 C45.67 37 45.34 37 45 37 Z " fill="#F9F9F9" transform="translate(146,21)"/>
<path d="M0 0 C1.34868164 -0.0309375 1.34868164 -0.0309375 2.72460938 -0.0625 C8.01088467 -0.09352729 11.77380957 0.22656659 16.3125 3.25 C20.51053397 8.44230517 20.8717762 12.83752902 20.640625 19.43359375 C20.23310258 22.93149455 19.35434792 25.37628811 17.3125 28.25 C16.3225 28.91 15.3325 29.57 14.3125 30.25 C14.99054688 30.71148437 15.66859375 31.17296875 16.3671875 31.6484375 C21.53728742 35.27180393 26.21232958 38.97315089 30.625 43.5 C36.94840149 49.97253832 41.25856707 52.84760298 50.3125 53.25 C50.3125 53.91 50.3125 54.57 50.3125 55.25 C47.29169971 57.26386686 46.49899399 57.56492143 43.0625 57.625 C42.33546875 57.65335938 41.6084375 57.68171875 40.859375 57.7109375 C34.51231859 56.56223711 29.81384267 52.2024102 25.3125 47.875 C24.274077 46.90166103 23.23501766 45.92900051 22.1953125 44.95703125 C21.24398438 44.06371094 20.29265625 43.17039063 19.3125 42.25 C15.34025883 38.05850999 15.34025883 38.05850999 10.3125 36.25 C10.76238281 36.62769531 11.21226562 37.00539062 11.67578125 37.39453125 C16.97353005 41.92787541 21.86111547 46.78373181 26.69921875 51.796875 C30.21815459 55.1001511 33.53225827 57.36477005 38.3125 58.25 C38.3125 58.91 38.3125 59.57 38.3125 60.25 C30.64137624 60.79793741 26.01587978 59.21898074 20.0078125 54.40234375 C14.54701835 49.5957981 9.41735251 44.43796414 4.33496094 39.23632812 C2.08234856 36.94292398 0.00000772 35.04167181 -2.6875 33.25 C-2.76870751 36.14640118 -2.82809421 39.04050912 -2.875 41.9375 C-2.90013672 42.75412109 -2.92527344 43.57074219 -2.95117188 44.41210938 C-3.00926133 49.19480793 -2.83271076 52.37897137 0.3125 56.25 C2.37950655 57.57793606 2.37950655 57.57793606 4.3125 58.25 C4.3125 58.91 4.3125 59.57 4.3125 60.25 C2.75009968 60.27730408 1.1875573 60.29653226 -0.375 60.3125 C-1.68017578 60.32990234 -1.68017578 60.32990234 -3.01171875 60.34765625 C-5.67869418 60.25032138 -8.08221655 59.80159481 -10.6875 59.25 C-10.71062851 51.70501767 -10.72841769 44.16003899 -10.73931217 36.61502934 C-10.74453989 33.11191115 -10.7516355 29.60881715 -10.76293945 26.10571289 C-10.77584206 22.08219159 -10.78072912 18.05869586 -10.78515625 14.03515625 C-10.79289818 12.13987938 -10.79289818 12.13987938 -10.80079651 10.20631409 C-10.80087204 9.045186 -10.80094757 7.88405792 -10.80102539 6.68774414 C-10.80435631 5.1455294 -10.80435631 5.1455294 -10.80775452 3.57215881 C-10.52960165 -1.79907512 -4.18956228 0.02352035 0 0 Z M-3.6875 7.25 C-3.96491245 9.48035297 -3.96491245 9.48035297 -3.8828125 12.0390625 C-3.87636719 12.98007813 -3.86992187 13.92109375 -3.86328125 14.890625 C-3.84652344 15.87546875 -3.82976562 16.8603125 -3.8125 17.875 C-3.80347656 18.86757812 -3.79445313 19.86015625 -3.78515625 20.8828125 C-3.76154116 23.33878134 -3.72860799 25.79427168 -3.6875 28.25 C-1.93784642 28.30429959 -0.18770213 28.34292823 1.5625 28.375 C2.53703125 28.39820312 3.5115625 28.42140625 4.515625 28.4453125 C7.41457124 28.24287212 8.95229507 27.92312305 11.3125 26.25 C14.47180023 21.02500346 14.58675267 15.99444178 13.24609375 10.1953125 C12.01327902 7.62651863 10.78650843 6.64948288 8.3125 5.25 C5.79516612 4.8159792 5.79516612 4.8159792 3.1875 4.9375 C2.31867188 4.94136719 1.44984375 4.94523437 0.5546875 4.94921875 C-1.8881081 5.04606447 -1.8881081 5.04606447 -3.6875 7.25 Z " fill="#FBFBFB" transform="translate(377.6875,87.75)"/>
<path d="M0 0 C1.65 0 3.3 0 5 0 C5 1.32 5 2.64 5 4 C6.134375 4.20625 7.26875 4.4125 8.4375 4.625 C17.44440125 6.90462279 24.42205656 13.13122808 29.18359375 20.94140625 C34.0613296 30.07152719 34.29041201 38.79794535 34.25878906 48.96826172 C34.26150312 50.37191956 34.26506638 51.77557598 34.26940918 53.17922974 C34.27848777 56.97273075 34.27500727 60.76612235 34.26865101 64.55962515 C34.26356547 68.5427742 34.26828972 72.52591428 34.27142334 76.50906372 C34.27505641 83.19860504 34.27028209 89.88810212 34.26074219 96.57763672 C34.24986781 104.29158641 34.25337847 112.00543028 34.264395 119.7193774 C34.27349734 126.36083815 34.27473852 133.00226721 34.26951766 139.64373219 C34.26641297 143.60217529 34.26594688 147.5605688 34.27259064 151.51900864 C34.27840616 155.24387641 34.27429099 158.96860905 34.26280212 162.69346237 C34.25893424 164.697719 34.2648058 166.70198718 34.27105713 168.70623779 C34.20094716 183.79603211 31.4825365 197.61215353 21 209 C17.28772454 212.52190236 11.35734921 217 6 217 C6 217.99 6 218.98 6 220 C4.35 220.33 2.7 220.66 1 221 C0.67 219.68 0.34 218.36 0 217 C2.4782302 214.93480816 4.97563699 213.49136647 7.875 212.125 C17.68914502 207.21792749 20.90580389 200.4965562 25.01171875 190.54882812 C32.10341078 165.08320675 28.30801866 133.82951946 28.26074219 107.70922852 C28.24925699 101.30161694 28.25599151 94.89417135 28.26788712 88.48656559 C28.27514478 83.4908271 28.27280146 78.49512746 28.26763153 73.49938774 C28.26631062 71.1365704 28.26788716 68.77374938 28.27259064 66.41093636 C29.13056628 37.77415675 29.13056628 37.77415675 16.56640625 13.109375 C12.42016129 9.70150243 7.75363432 7.58835414 2.87890625 5.41015625 C0 4 0 4 -1 2 C-0.67 1.34 -0.34 0.68 0 0 Z " fill="#525252" transform="translate(4,5)"/>
<path d="M0 0 C0.99 0.33 1.98 0.66 3 1 C3 71.95 3 142.9 3 216 C1.35 215.67 -0.3 215.34 -2 215 C-2 144.38 -2 73.76 -2 1 C-1.34 0.67 -0.68 0.34 0 0 Z " fill="#555555" transform="translate(67,6)"/>
<path d="M0 0 C1.4540625 0.0309375 1.4540625 0.0309375 2.9375 0.0625 C5.22104699 4.8656921 7.49957653 9.67121879 9.7734375 14.47900391 C10.54809451 16.11507691 11.32413178 17.7504971 12.1015625 19.38525391 C13.21715827 21.73170471 14.32781013 24.08043905 15.4375 26.4296875 C15.78748047 27.16307343 16.13746094 27.89645935 16.49804688 28.65206909 C18.9375 33.83475659 18.9375 33.83475659 18.9375 36.0625 C19.5975 36.0625 20.2575 36.0625 20.9375 36.0625 C21.31390625 34.8559375 21.6903125 33.649375 22.078125 32.40625 C24.23535281 25.95982684 26.9284276 19.77041289 29.6875 13.5625 C30.18765625 12.37140625 30.6878125 11.1803125 31.203125 9.953125 C31.7084375 8.82390625 32.21375 7.6946875 32.734375 6.53125 C33.18135742 5.50451172 33.62833984 4.47777344 34.08886719 3.41992188 C35.9375 1.0625 35.9375 1.0625 39.63769531 0.22070312 C40.72663086 0.16849609 41.81556641 0.11628906 42.9375 0.0625 C45.32526806 39.69563956 45.32526806 39.69563956 44.9375 59.0625 C41.92259443 60.06746852 39.89568308 60.16585303 36.75 60.125 C35.84894531 60.11597656 34.94789063 60.10695312 34.01953125 60.09765625 C33.33246094 60.08605469 32.64539063 60.07445312 31.9375 60.0625 C31.9375 59.4025 31.9375 58.7425 31.9375 58.0625 C32.576875 57.588125 33.21625 57.11375 33.875 56.625 C36.22122963 55.1533635 36.22122963 55.1533635 36.9375 52.0625 C37.03194097 50.16459292 37.06821658 48.26353544 37.0703125 46.36328125 C37.07160156 45.23599609 37.07289063 44.10871094 37.07421875 42.94726562 C37.06841797 41.17899414 37.06841797 41.17899414 37.0625 39.375 C37.06636719 38.21548828 37.07023437 37.05597656 37.07421875 35.86132812 C37.07292969 34.72759766 37.07164062 33.59386719 37.0703125 32.42578125 C37.06862061 30.88337769 37.06862061 30.88337769 37.06689453 29.30981445 C36.91544276 25.50894645 36.45187501 21.83092265 35.9375 18.0625 C35.31705811 19.46326782 35.31705811 19.46326782 34.68408203 20.89233398 C33.15119256 24.34853718 31.60986076 27.80091933 30.06591797 31.25219727 C29.39823325 32.74790851 28.73285829 34.24465301 28.06982422 35.74243164 C27.11767858 37.89223132 26.15735183 40.03820672 25.1953125 42.18359375 C24.89940216 42.85651962 24.60349182 43.5294455 24.2986145 44.22276306 C22.16524341 48.94862829 22.16524341 48.94862829 19.9375 50.0625 C17.57133503 47.90893323 16.2176435 45.9375219 14.88452148 43.03759766 C14.51080917 42.23311188 14.13709686 41.4286261 13.75205994 40.59976196 C13.16129417 39.30127823 13.16129417 39.30127823 12.55859375 37.9765625 C12.14585709 37.08262787 11.73312042 36.18869324 11.30787659 35.26766968 C9.990693 32.41043071 8.68291194 29.54899305 7.375 26.6875 C6.49081471 24.76796174 5.60605557 22.8486877 4.72070312 20.9296875 C-2.25574393 5.77363596 -2.25574393 5.77363596 -4.0625 1.0625 C-3.0625 0.0625 -3.0625 0.0625 0 0 Z " fill="#F0F1F1" transform="translate(115.0625,109.9375)"/>
<path d="M0 0 C11.55 0 23.1 0 35 0 C35.495 5.94 35.495 5.94 36 12 C35.34 12.33 34.68 12.66 34 13 C33.2575 12.21625 32.515 11.4325 31.75 10.625 C26.79082498 5.89124203 22.85910354 5.63901379 16.25 5.375 C12.16625 5.189375 12.16625 5.189375 8 5 C7.67 11.93 7.34 18.86 7 26 C9.8875 25.938125 12.775 25.87625 15.75 25.8125 C17.10496582 25.80246948 17.10496582 25.80246948 18.48730469 25.79223633 C23.55214157 25.64233964 23.55214157 25.64233964 27.390625 22.44921875 C28.18726563 21.23685547 28.18726563 21.23685547 29 20 C29.99 20 30.98 20 32 20 C32 26.27 32 32.54 32 39 C31.01 39 30.02 39 29 39 C28.54625 38.030625 28.0925 37.06125 27.625 36.0625 C26.34213779 32.92920418 26.34213779 32.92920418 24 32 C21.11932263 31.76713087 18.25987481 31.5805406 15.375 31.4375 C12.61125 31.293125 9.8475 31.14875 7 31 C7 38.59 7 46.18 7 54 C19.91039618 54.80650962 19.91039618 54.80650962 32 51 C34.34325664 48.44860147 34.34325664 48.44860147 36 46 C36.99 46 37.98 46 39 46 C38.71390693 47.39698636 38.42083095 48.7925433 38.125 50.1875 C37.96257812 50.96480469 37.80015625 51.74210937 37.6328125 52.54296875 C37 55 37 55 35 60 C23.45 59.67 11.9 59.34 0 59 C0 39.53 0 20.06 0 0 Z " fill="#FAFBFA" transform="translate(111,37)"/>
<path d="M0 0 C1.43352212 0.00015908 2.86704998 0.00585132 4.30053711 0.01586914 C5.43041298 0.01799156 5.43041298 0.01799156 6.58311462 0.02015686 C8.99807646 0.02577163 11.41294687 0.03832656 13.82788086 0.05102539 C15.46134307 0.05603849 17.09480672 0.06060173 18.72827148 0.06469727 C22.74067671 0.07574585 26.75301326 0.09302033 30.76538086 0.11352539 C31.26038086 6.05352539 31.26038086 6.05352539 31.76538086 12.11352539 C30.44538086 12.11352539 29.12538086 12.11352539 27.76538086 12.11352539 C27.53850586 11.49477539 27.31163086 10.87602539 27.07788086 10.23852539 C25.295394 7.35259428 24.01226794 7.10468039 20.76538086 6.11352539 C17.83192837 5.74635176 14.90557613 5.60775201 11.95288086 5.48852539 C9.25100586 5.36477539 6.54913086 5.24102539 3.76538086 5.11352539 C3.43538086 12.04352539 3.10538086 18.97352539 2.76538086 26.11352539 C7.12756836 25.95883789 7.12756836 25.95883789 11.57788086 25.80102539 C12.49029541 25.77613037 13.40270996 25.75123535 14.34277344 25.72558594 C15.0661792 25.69247314 15.78958496 25.65936035 16.53491211 25.62524414 C17.27330322 25.59906006 18.01169434 25.57287598 18.77246094 25.54589844 C21.27483363 25.00299729 22.16664427 24.0754882 23.76538086 22.11352539 C24.09538086 21.45352539 24.42538086 20.79352539 24.76538086 20.11352539 C25.75538086 20.11352539 26.74538086 20.11352539 27.76538086 20.11352539 C27.76538086 26.38352539 27.76538086 32.65352539 27.76538086 39.11352539 C26.77538086 39.11352539 25.78538086 39.11352539 24.76538086 39.11352539 C24.29100586 38.14415039 23.81663086 37.17477539 23.32788086 36.17602539 C22.06344139 33.30875102 22.06344139 33.30875102 20.76538086 32.11352539 C19.42522865 31.95770236 18.07779183 31.86308397 16.73022461 31.79711914 C16.00182373 31.75901123 15.27342285 31.72090332 14.52294922 31.68164062 C13.12701538 31.61698608 13.12701538 31.61698608 11.70288086 31.55102539 C8.75350586 31.40665039 5.80413086 31.26227539 2.76538086 31.11352539 C2.76538086 38.70352539 2.76538086 46.29352539 2.76538086 54.11352539 C6.75631836 54.17540039 6.75631836 54.17540039 10.82788086 54.23852539 C11.65167236 54.2567334 12.47546387 54.27494141 13.32421875 54.29370117 C18.61387582 54.33297296 24.30689235 54.33076035 28.43725586 50.60571289 C28.79303711 50.07204102 29.14881836 49.53836914 29.51538086 48.98852539 C30.25788086 48.03977539 31.00038086 47.09102539 31.76538086 46.11352539 C32.75538086 46.11352539 33.74538086 46.11352539 34.76538086 46.11352539 C34.47928779 47.51051175 34.18621181 48.90606869 33.89038086 50.30102539 C33.72795898 51.07833008 33.56553711 51.85563477 33.39819336 52.65649414 C32.76538086 55.11352539 32.76538086 55.11352539 30.76538086 60.11352539 C19.21538086 59.78352539 7.66538086 59.45352539 -4.23461914 59.11352539 C-4.25556481 51.57541343 -4.27560288 44.03740629 -4.28636932 36.49929047 C-4.29165897 32.98926046 -4.29873234 29.47925444 -4.31005859 25.96923828 C-4.3229612 21.94571699 -4.32784826 17.92222125 -4.33227539 13.89868164 C-4.34001732 12.00340477 -4.34001732 12.00340477 -4.34791565 10.06983948 C-4.34799118 8.9087114 -4.34806671 7.74758331 -4.34814453 6.55126953 C-4.35147545 5.00905479 -4.35147545 5.00905479 -4.35487366 3.4356842 C-4.16639046 -0.20399545 -3.74488106 0.13143405 0 0 Z " fill="#F7F7F7" transform="translate(371.234619140625,164.886474609375)"/>
<path d="M0 0 C2.40068434 -0.21742047 4.78170109 -0.37467466 7.1875 -0.5 C7.86103516 -0.56703125 8.53457031 -0.6340625 9.22851562 -0.703125 C11.23046875 -0.78125 11.23046875 -0.78125 15 0 C17.3511176 2.29325167 18.58990772 5.06233062 20 8 C20.5060376 9.00272949 21.0120752 10.00545898 21.53344727 11.03857422 C23.290471 14.5701327 24.99437643 18.12508038 26.6875 21.6875 C27.30251908 22.97316269 27.91792014 24.25864272 28.53369141 25.54394531 C29.76947624 28.12550567 31.0024323 30.70838651 32.23291016 33.29248047 C33.86057209 36.71005002 35.49755163 40.12308797 37.13671875 43.53515625 C38.04977112 45.43996425 38.96255083 47.34490298 39.875 49.25 C40.29740967 50.13002686 40.71981934 51.01005371 41.1550293 51.91674805 C41.5344165 52.71250244 41.91380371 53.50825684 42.3046875 54.328125 C42.63452637 55.0180957 42.96436523 55.70806641 43.30419922 56.41894531 C44 58 44 58 44 59 C39.03926578 60.32286246 34.08888488 60.08893197 29 60 C29 59.34 29 58.68 29 58 C29.99 57.34 30.98 56.68 32 56 C32.67330422 51.09049004 31.32062885 48.02597352 29 43.75 C26 38.16666667 26 38.16666667 26 36 C19.4 36 12.8 36 6 36 C5.34 37.98 4.68 39.96 4 42 C3.28923736 43.52952101 2.56135849 45.05126573 1.8125 46.5625 C0.53920613 49.38465134 -0.00432156 50.79688686 0.0625 53.9375 C0.93448644 56.33761004 0.93448644 56.33761004 4 58 C4 58.66 4 59.32 4 60 C-2.6 60 -9.2 60 -16 60 C-15 57 -15 57 -12.67578125 55.2734375 C-9.40885442 52.49774201 -7.93231159 49.44217396 -6.1875 45.625 C-5.4994577 44.18458623 -4.80797639 42.74581075 -4.11328125 41.30859375 C-3.76475098 40.58655762 -3.4162207 39.86452148 -3.05712891 39.12060547 C-1.4533384 35.9033943 0.31864355 32.79429402 2.125 29.6875 C2.77597656 28.55957031 3.42695313 27.43164062 4.09765625 26.26953125 C5.34967157 24.11771025 6.60734151 21.96916776 7.87109375 19.82421875 C8.42925781 18.85097656 8.98742187 17.87773437 9.5625 16.875 C10.05878906 16.02679687 10.55507813 15.17859375 11.06640625 14.3046875 C12.17736533 12.07528525 12.17736533 12.07528525 11.78515625 9.828125 C10.52495509 6.89392527 8.64643533 5.72593609 6 4 C3.67529874 3.1432778 1.42052625 2.56953559 -1 2 C-0.67 1.34 -0.34 0.68 0 0 Z M16 17 C14.9923048 18.7664657 13.99408286 20.53833823 13 22.3125 C12.443125 23.29863281 11.88625 24.28476562 11.3125 25.30078125 C9.78135247 27.94942471 9.78135247 27.94942471 10 31 C14.29 31 18.58 31 23 31 C21.7290827 27.1872481 20.66918099 24.09374991 18.875 20.625 C18.52179688 19.93664062 18.16859375 19.24828125 17.8046875 18.5390625 C17.53914063 18.03117187 17.27359375 17.52328125 17 17 C16.67 17 16.34 17 16 17 Z " fill="#F6F7F7" transform="translate(364,11)"/>
<path d="M0 0 C4.95 0 9.9 0 15 0 C20.12662594 10.05220772 25.00490978 20.2002752 29.75 30.4375 C30.58180786 32.2313916 30.58180786 32.2313916 31.43041992 34.06152344 C32.48357216 36.33993344 33.53338385 38.61989146 34.5793457 40.90161133 C35.47400693 42.85283072 36.37526765 44.80105074 37.28588867 46.74487305 C37.83853394 47.94237183 37.83853394 47.94237183 38.40234375 49.1640625 C38.71937256 49.84291504 39.03640137 50.52176758 39.36303711 51.22119141 C40.27373834 53.76445288 39.97707419 55.51973475 39 58 C38.505 58.99 38.505 58.99 38 60 C37.01 60 36.02 60 35 60 C34.45996338 58.82904785 33.91992676 57.6580957 33.36352539 56.45166016 C31.36417106 52.11671426 29.36440021 47.78196061 27.36450195 43.44726562 C26.49817685 41.5693886 25.63196547 39.69145911 24.76586914 37.81347656 C23.52259574 35.11770116 22.27891657 32.42211328 21.03515625 29.7265625 C20.64658951 28.88380768 20.25802277 28.04105286 19.85768127 27.17276001 C19.49738327 26.39210175 19.13708527 25.61144348 18.76586914 24.80712891 C18.44832169 24.11873932 18.13077423 23.43034973 17.80360413 22.72109985 C17.22045127 21.47214622 16.61643369 20.23286737 16 19 C13.73665826 23.52668349 14.50015372 29.64592122 14.3125 34.625 C14.25255859 35.88441406 14.19261719 37.14382812 14.13085938 38.44140625 C13.87763614 45.05296089 13.92697577 50.69355848 16 57 C17.65 57.33 19.3 57.66 21 58 C21 58.66 21 59.32 21 60 C14.07 60 7.14 60 0 60 C0 59.34 0 58.68 0 58 C1.66666667 56.33333333 3.33333333 54.66666667 5 53 C6.25701425 49.22895724 6.34379739 45.57707874 6.53515625 41.640625 C6.57813339 40.81802185 6.62111053 39.9954187 6.66539001 39.14788818 C6.75554947 37.40631063 6.8436781 35.66462693 6.92993164 33.92285156 C7.06131801 31.27383135 7.19904671 28.62520122 7.33789062 25.9765625 C7.42485572 24.28126927 7.51145589 22.58595728 7.59765625 20.890625 C7.65857201 19.71212982 7.65857201 19.71212982 7.72071838 18.50982666 C7.94191767 13.99991475 8.03856385 9.51534064 8 5 C5.34771188 3.92474806 2.71631546 2.90543849 0 2 C0 1.34 0 0.68 0 0 Z " fill="#F7F7F7" transform="translate(93,110)"/>
<path d="M0 0 C15.95091893 0.93828935 30.57044676 10.24839647 41.83984375 21.078125 C43 23 43 23 42.81640625 25.421875 C41.72176324 28.87864242 40.35465819 32.16551014 38.9375 35.5 C35.13381306 45.64316516 35.6790228 59.11360418 40 69 C43.85396401 77.25458957 48.14186522 83.37585184 56.06445312 88.02832031 C63.48872498 92.52533072 63.48872498 92.52533072 64.9453125 96.7265625 C65.00941993 100.27078731 64.567825 103.49841251 64 107 C63.82376052 108.62295631 63.65496931 110.24673245 63.4921875 111.87109375 C62.17062877 123.84305756 59.24430363 134.75053503 55 146 C54.34 146 53.68 146 53 146 C52.34 142.7 51.68 139.4 51 136 C51.66 136 52.32 136 53 136 C53.12375 134.865625 53.2475 133.73125 53.375 132.5625 C53.75154681 129.50709157 54.29327355 126.55817628 55 123.5625 C55.82716501 119.92667767 56.513178 116.36249265 56.79296875 112.640625 C57 110 57 110 57.55078125 106.484375 C58.40009701 99.5855624 58.40009701 99.5855624 55.75048828 93.42675781 C52.92233412 90.84781465 49.79253596 88.75685292 46.6328125 86.609375 C38.11863495 80.78134817 33.64213423 71.74346614 31 62 C30.45955792 58.04229083 30.38071608 54.1778608 30.4375 50.1875 C30.44265625 49.1459375 30.4478125 48.104375 30.453125 47.03125 C30.65341104 38.54544692 32.24535582 31.6165639 36 24 C27.17859645 11.82911615 13.73987578 5.90709849 0 1 C0 0.67 0 0.34 0 0 Z " fill="#575757" transform="translate(146,21)"/>
<path d="M0 0 C2.01032877 0.63484067 4.00697876 1.3127513 6 2 C6.85464844 2.29132813 7.70929688 2.58265625 8.58984375 2.8828125 C9.93755859 3.37394531 9.93755859 3.37394531 11.3125 3.875 C12.17488281 4.18179688 13.03726563 4.48859375 13.92578125 4.8046875 C16 6 16 6 16.61254883 7.61743164 C21.64238552 38.54759946 15.9812138 76.52496637 -1 103 C-3.375 106.1875 -3.375 106.1875 -5 108 C-8.875 106.25 -8.875 106.25 -10 104 C-9.41089844 103.48050781 -8.82179687 102.96101563 -8.21484375 102.42578125 C-5.63601243 99.60134695 -4.11416017 96.63687085 -2.5625 93.1875 C-2.11245605 92.19834595 -2.11245605 92.19834595 -1.65332031 91.18920898 C5.69914125 74.6657875 8.63747953 57.78838941 11 40 C8.03 39.34 5.06 38.68 2 38 C1.67 38.66 1.34 39.32 1 40 C1 38.35 1 36.7 1 35 C4.96435532 35.55316586 8.3162378 36.45620868 12 38 C11.7834375 36.22496094 11.7834375 36.22496094 11.5625 34.4140625 C9.73664508 19.01401049 9.73664508 19.01401049 10.02734375 11.84765625 C10.08959171 9.76518352 10.08959171 9.76518352 9 7 C6.90861544 5.76049958 6.90861544 5.76049958 4.4375 4.8125 C3.61121094 4.46832031 2.78492188 4.12414062 1.93359375 3.76953125 C1.29550781 3.51558594 0.65742188 3.26164062 0 3 C0 2.01 0 1.02 0 0 Z " fill="#585858" transform="translate(226,88)"/>
<path d="M0 0 C6.18316178 0.60220094 11.62476661 2.41831005 17.4375 4.5625 C18.40526367 4.91892578 19.37302734 5.27535156 20.37011719 5.64257812 C33.0902987 10.42788939 44.85435229 15.74068211 55 25 C55.63164062 25.54011719 56.26328125 26.08023438 56.9140625 26.63671875 C66.90941676 35.72940886 72.54432429 49.10692035 73.34375 62.46875 C73.66025413 72.27109927 73.41214687 83.45653958 68 92 C64.875 92.75 64.875 92.75 62 93 C62.20496094 92.35933594 62.40992188 91.71867187 62.62109375 91.05859375 C62.89050781 90.19363281 63.15992188 89.32867187 63.4375 88.4375 C63.70433594 87.59058594 63.97117187 86.74367188 64.24609375 85.87109375 C68.4874052 69.71894909 66.78533497 52.29130805 58.8125 37.625 C47.18111997 19.28037103 26.31766331 10.45351522 6.37011719 3.95263672 C4.56244009 3.35248114 2.77834174 2.68219048 1 2 C0.67 1.34 0.34 0.68 0 0 Z " fill="#5C5C5C" transform="translate(263,103)"/>
<path d="M0 0 C4.62 0 9.24 0 14 0 C14 19.47 14 38.94 14 59 C10.37810828 59.72437834 7.76234736 60.11585593 4.1875 60.0625 C3.39730469 60.05347656 2.60710937 60.04445312 1.79296875 60.03515625 C1.20128906 60.02355469 0.60960938 60.01195312 0 60 C0 59.34 0 58.68 0 58 C0.61875 57.938125 1.2375 57.87625 1.875 57.8125 C4.1567286 57.19554481 4.1567286 57.19554481 5.11621094 55.07250977 C6.37208348 50.7064446 6.28543354 46.54879022 6.265625 42.02734375 C6.26753845 41.06727921 6.2694519 40.10721466 6.27142334 39.11805725 C6.27278148 37.09326922 6.26911101 35.06847237 6.26074219 33.04370117 C6.25002577 29.94495107 6.26065618 26.84677915 6.2734375 23.74804688 C6.27211607 21.77864455 6.26955402 19.80924259 6.265625 17.83984375 C6.26967346 16.91372787 6.27372192 15.987612 6.27789307 15.03343201 C6.27158875 14.1689595 6.26528442 13.304487 6.25878906 12.41381836 C6.25719788 11.65612656 6.25560669 10.89843475 6.25396729 10.11778259 C5.67816451 5.31627799 3.47286909 3.47286909 0 0 Z " fill="#FAFAFA" transform="translate(95,37)"/>
<path d="M0 0 C4.95 0 9.9 0 15 0 C15 0.66 15 1.32 15 2 C13.33720673 3.0064275 11.67016516 4.00585407 10 5 C7.9683014 8.0475479 7.74968961 8.61811505 7.76953125 12.03515625 C7.77065918 12.83598633 7.77178711 13.63681641 7.77294922 14.46191406 C7.78600098 15.32010742 7.79905273 16.17830078 7.8125 17.0625 C7.82039551 17.94776367 7.82829102 18.83302734 7.83642578 19.74511719 C7.91232131 25.75048414 8.08691543 31.75109981 8.375 37.75 C8.4056958 38.46293213 8.4363916 39.17586426 8.46801758 39.91040039 C8.77350462 45.28330398 9.15946811 51.5192831 12.4375 55.9375 C14.13706807 57.19677658 14.13706807 57.19677658 17 58 C17 58.66 17 59.32 17 60 C15.43759968 60.02730408 13.8750573 60.04653226 12.3125 60.0625 C11.00732422 60.07990234 11.00732422 60.07990234 9.67578125 60.09765625 C7.00880582 60.00032138 4.60528345 59.55159481 2 59 C1.7091901 53.49085402 1.42469872 47.98142673 1.14550781 42.47167969 C1.05014553 40.60603509 0.95319785 38.7404707 0.85449219 36.875 C0.20478844 24.57040649 -0.13634136 12.32185069 0 0 Z " fill="#FCFCFC" transform="translate(160,110)"/>
<path d="M0 0 C6.25992538 1.15405934 11.77160616 2.92256886 17.5 5.6875 C18.60855347 6.21923828 18.60855347 6.21923828 19.73950195 6.76171875 C29.42545785 11.53911415 37.09245508 17.45346995 42.13671875 27.1953125 C44.47467563 34.79102762 44.45386435 45.74591125 41.4375 53.125 C35.67608022 63.45512459 26.81264523 70.56933731 15.69921875 74.3203125 C11.97597847 75.25785781 8.81806793 75.28815607 5 75 C5 74.67 5 74.34 5 74 C5.60585938 73.85304688 6.21171875 73.70609375 6.8359375 73.5546875 C17.77528712 70.62630776 26.49200215 65.44033711 33 56 C37.75276082 47.63356979 37.6317549 39.31679408 36 30 C35.06694755 26.95202866 33.84073922 24.59022587 32 22 C31.63519531 21.4225 31.27039063 20.845 30.89453125 20.25 C24.07151232 10.84473082 10.44915891 5.98063197 0 2 C0 1.34 0 0.68 0 0 Z " fill="#525252" transform="translate(261,135)"/>
<path d="M0 0 C2.31 0 4.62 0 7 0 C7.53890869 1.14887695 8.07781738 2.29775391 8.63305664 3.48144531 C10.66082675 7.80049832 12.69595044 12.11605379 14.7331543 16.43066406 C15.60881818 18.28781128 16.48256514 20.14586374 17.35424805 22.00488281 C25.55131368 41.989344 25.55131368 41.989344 40 57 C40 57.66 40 58.32 40 59 C34.77218069 59.18026963 30.8954382 59.1058523 26 57 C24.33178711 54.73876953 24.33178711 54.73876953 23.02734375 51.8828125 C22.52614014 50.81345459 22.02493652 49.74409668 21.50854492 48.64233398 C20.9901001 47.48161377 20.47165527 46.32089355 19.9375 45.125 C19.09657681 43.30802944 18.25564315 41.49106365 17.41413879 39.67436218 C16.5337573 37.76451194 15.66335983 35.85036622 14.79492188 33.93505859 C12.98724342 29.95675336 11.13046552 26.00254349 9.265625 22.05078125 C8.07178566 19.51355155 6.87936727 16.9756566 5.6875 14.4375 C5.39906219 13.82400696 5.11062439 13.21051392 4.81344604 12.57843018 C4.00036864 10.84459998 3.19339329 9.10791216 2.38671875 7.37109375 C1.92483154 6.38036865 1.46294434 5.38964355 0.98706055 4.36889648 C0 2 0 2 0 0 Z " fill="#FBFCFC" transform="translate(383,12)"/>
<path d="M0 0 C4.29 0 8.58 0 13 0 C13.15325554 7.249578 13.30204455 14.49921443 13.4429636 21.74904346 C13.50857606 25.11539382 13.57614829 28.48168108 13.64819336 31.84790039 C13.73004133 35.71753002 13.80514575 39.58724008 13.87890625 43.45703125 C13.90594131 44.66647903 13.93297638 45.87592682 13.96083069 47.12202454 C13.98092697 48.24296005 14.00102325 49.36389557 14.02172852 50.51879883 C14.04171402 51.50697098 14.06169952 52.49514313 14.08229065 53.51325989 C14 56 14 56 13 59 C8.32798795 60.20568053 3.78503708 60.09382426 -1 60 C-1 59.34 -1 58.68 -1 58 C-0.21625 57.62875 0.5675 57.2575 1.375 56.875 C5.01199567 54.27714595 5.29942692 51.20040022 6 47 C6.25816298 44.19178505 6.30432891 41.40882302 6.30078125 38.58984375 C6.30720894 37.43313927 6.30720894 37.43313927 6.31376648 36.25306702 C6.31946824 34.63543676 6.320041 33.01778089 6.31567383 31.40014648 C6.31250341 28.94014573 6.33605986 26.48133792 6.36132812 24.02148438 C6.3636007 22.44010567 6.36430481 20.85872376 6.36328125 19.27734375 C6.372491 18.55111313 6.38170074 17.82488251 6.39118958 17.0766449 C6.34495207 11.92200369 5.39639692 8.47334454 3 4 C2.01 3.34 1.02 2.68 0 2 C0 1.34 0 0.68 0 0 Z " fill="#EFF0F0" transform="translate(352,165)"/>
<path d="M0 0 C4.62 0 9.24 0 14 0 C14 19.47 14 38.94 14 59 C10.59112017 59.85221996 8.19565369 60.10783755 4.75 60.0625 C3.85796875 60.05347656 2.9659375 60.04445312 2.046875 60.03515625 C1.37140625 60.02355469 0.6959375 60.01195312 0 60 C0 59.34 0 58.68 0 58 C0.78375 57.566875 1.5675 57.13375 2.375 56.6875 C5.61265065 54.60615315 5.94074299 53.66670543 7 50 C7.29168713 46.98950829 7.30409944 43.99563325 7.30078125 40.97265625 C7.30720894 39.67285072 7.30720894 39.67285072 7.31376648 38.3467865 C7.31949543 36.51871614 7.32002064 34.69062299 7.31567383 32.86254883 C7.31251449 30.07528564 7.33598832 27.2890852 7.36132812 24.50195312 C7.36360143 22.7213555 7.36430447 20.94075503 7.36328125 19.16015625 C7.372491 18.33185806 7.38170074 17.50355988 7.39118958 16.65016174 C7.35188879 11.70198056 6.75097448 8.28396344 4 4 C1.94906855 2.59533047 1.94906855 2.59533047 0 2 C0 1.34 0 0.68 0 0 Z " fill="#F4F5F4" transform="translate(351,88)"/>
<path d="M0 0 C1.65 0 3.3 0 5 0 C5.19944358 4.53465657 5.34368374 9.06670402 5.43945312 13.60473633 C5.47941124 15.14425166 5.53380258 16.6834687 5.60351562 18.22192383 C6.23959605 32.63195171 6.23959605 32.63195171 1.30078125 38.30078125 C-0.09158556 39.58022431 -1.52212938 40.82035671 -3 42 C-3.92425781 42.80953125 -4.84851563 43.6190625 -5.80078125 44.453125 C-15.66891954 51.51275737 -28.38856141 58.99563989 -41 58 C-38.29842502 56.62833774 -35.57392889 55.34594036 -32.8046875 54.1171875 C-19.4285214 48.08551595 -19.4285214 48.08551595 -8 39 C-7.40429199 38.49718506 -6.80858398 37.99437012 -6.19482422 37.47631836 C-2.97838403 34.44109178 -1.20486522 32.21110957 -0.45507812 27.77856445 C-0.3474929 24.05850066 -0.43792292 20.4042252 -0.625 16.6875 C-0.70392918 14.17067749 -0.77960924 11.65375035 -0.8515625 9.13671875 C-0.90135254 8.03030029 -0.95114258 6.92388184 -1.00244141 5.78393555 C-1 3 -1 3 0 0 Z " fill="#525252" transform="translate(186,151)"/>
<path d="M0 0 C10.98089963 -0.56384594 21.70051067 4.653771 29.8515625 11.81640625 C37.67175444 19.76456497 43.1806612 29.89471048 43.25 41.3125 C43.1675 42.199375 43.085 43.08625 43 44 C41.35 44 39.7 44 38 44 C36.39029342 41.0932158 35.64144594 38.58508089 35.125 35.3125 C33.70218707 27.77603775 30.96874124 21.85601646 26 16 C26 15.34 26 14.68 26 14 C25.34 14 24.68 14 24 14 C24 13.34 24 12.68 24 12 C23.41734375 11.70867188 22.8346875 11.41734375 22.234375 11.1171875 C14.82291667 7.41145833 7.41145833 3.70572917 0 0 Z " fill="#525252" transform="translate(289,23)"/>
<path d="M0 0 C2.01032877 0.63484067 4.00697876 1.3127513 6 2 C6.85464844 2.29132813 7.70929688 2.58265625 8.58984375 2.8828125 C9.48832031 3.21023437 10.38679687 3.53765625 11.3125 3.875 C12.60607422 4.33519531 12.60607422 4.33519531 13.92578125 4.8046875 C16 6 16 6 16.62254333 7.83978271 C17.22683383 11.29818971 17.12120744 14.76662981 17.09765625 18.265625 C17.0962413 19.05902283 17.09482635 19.85242065 17.09336853 20.66986084 C17.08778415 23.19661272 17.07523454 25.72327504 17.0625 28.25 C17.05748298 29.96614455 17.05292043 31.68229049 17.04882812 33.3984375 C17.03781984 37.59899269 17.02056596 41.79948117 17 46 C16.67 46 16.34 46 16 46 C16 44.02 16 42.04 16 40 C14.205625 40.061875 14.205625 40.061875 12.375 40.125 C8.57670047 40.13851708 5.55024382 39.42009753 2 38 C1.67 38.66 1.34 39.32 1 40 C1 38.35 1 36.7 1 35 C4.96435532 35.55316586 8.3162378 36.45620868 12 38 C11.7834375 36.22496094 11.7834375 36.22496094 11.5625 34.4140625 C9.73664508 19.01401049 9.73664508 19.01401049 10.02734375 11.84765625 C10.08959171 9.76518352 10.08959171 9.76518352 9 7 C6.90861544 5.76049958 6.90861544 5.76049958 4.4375 4.8125 C3.61121094 4.46832031 2.78492188 4.12414062 1.93359375 3.76953125 C1.29550781 3.51558594 0.65742188 3.26164062 0 3 C0 2.01 0 1.02 0 0 Z " fill="#CCCCCC" transform="translate(226,88)"/>
<path d="M0 0 C4.07646719 1.3588224 4.98920368 3.94892237 6.875 7.5625 C7.22506104 8.22926758 7.57512207 8.89603516 7.93579102 9.58300781 C13.25524786 20.08229034 16.72408836 31.16088226 17 43 C13.76269608 41.38359929 11.62040002 40.28761682 10.02294922 36.97216797 C9.23170602 34.47718697 8.5637442 31.97890264 7.9375 29.4375 C6.37386252 23.62672726 4.83177533 18.15592594 2.125 12.75 C-0.11349937 8.22293898 -0.47294294 5.01319521 0 0 Z " fill="#606161" transform="translate(191,50)"/>
<path d="M0 0 C1.98 0 3.96 0 6 0 C6.12117187 1.14339844 6.24234375 2.28679687 6.3671875 3.46484375 C6.53597321 4.95578417 6.70527047 6.44666673 6.875 7.9375 C6.95363281 8.69224609 7.03226563 9.44699219 7.11328125 10.22460938 C7.33883808 12.15919299 7.66258974 14.08176019 8 16 C8.66 16.33 9.32 16.66 10 17 C9.34 17 8.68 17 8 17 C7.896875 17.71542969 7.79375 18.43085938 7.6875 19.16796875 C6.92025497 22.32849516 5.70262646 24.54982486 4 27.3125 C3.46375 28.19550781 2.9275 29.07851562 2.375 29.98828125 C1.694375 30.98408203 1.694375 30.98408203 1 32 C0.67 32 0.34 32 0 32 C0 21.44 0 10.88 0 0 Z " fill="#F8F8F8" transform="translate(191,151)"/>
<path d="M0 0 C0 0.66 0 1.32 0 2 C-0.81082031 2.27972656 -1.62164062 2.55945313 -2.45703125 2.84765625 C-16.65778491 7.98902341 -28.01389855 14.7464111 -35 28.5625 C-35.68132633 30.0349717 -36.35376429 31.51179374 -37 33 C-37.99 32.34 -38.98 31.68 -40 31 C-39.84623195 23.92666955 -36.79446133 19.0975148 -32 14 C-23.39442812 6.87510486 -11.40779347 0 0 0 Z " fill="#565656" transform="translate(244,5)"/>
<path d="M0 0 C3.68099261 3.21176717 5.60438424 6.79556186 7.5625 11.1875 C7.86551025 11.85515381 8.16852051 12.52280762 8.48071289 13.21069336 C14.55502974 26.78461332 14.55502974 26.78461332 14 34 C11.1875 33.0625 11.1875 33.0625 8 31 C6.94343967 28.88687934 6.34248722 26.81956901 5.71484375 24.54296875 C4.95892087 21.85386604 3.9925548 19.33546396 2.9375 16.75 C2.61652344 15.96109375 2.29554688 15.1721875 1.96484375 14.359375 C1.28731714 12.70258929 0.59453075 11.05200147 -0.109375 9.40625 C-1.19414098 6.47547876 -1.21142506 4.10090093 -1 1 C-0.67 0.67 -0.34 0.34 0 0 Z " fill="#5A5A5A" transform="translate(224,40)"/>
<path d="M0 0 C0.33 0 0.66 0 1 0 C1.85120257 14.01444237 2.13088769 27.96078522 2 42 C-1.01490557 43.00496852 -3.04181692 43.10335303 -6.1875 43.0625 C-7.08855469 43.05347656 -7.98960937 43.04445312 -8.91796875 43.03515625 C-9.60503906 43.02355469 -10.29210937 43.01195312 -11 43 C-11 42.34 -11 41.68 -11 41 C-10.21625 40.773125 -9.4325 40.54625 -8.625 40.3125 C-5.87704189 39.25269771 -5.87704189 39.25269771 -4.8671875 36.90234375 C-3.61093426 32.69785654 -3.57284445 28.52531774 -3.43359375 24.17578125 C-3.35482394 22.44627031 -3.18473769 20.72141941 -3 19 C-2.34 18.67 -1.68 18.34 -1 18 C-0.505 9.09 -0.505 9.09 0 0 Z " fill="#F5F6F5" transform="translate(158,127)"/>
<path d="M0 0 C4.0654389 0.18909018 5.72808284 0.75829586 8.8125 3.5 C11.65132095 7.31265596 12.29514787 11.31235737 12 16 C10.34371883 20.14070293 7.72274527 22.58021558 4 25 C3.01 24.67 2.02 24.34 1 24 C1.32355469 23.29617187 1.64710938 22.59234375 1.98046875 21.8671875 C4.11358782 15.86830093 4.03101557 8.62771387 1.5 2.75 C1.005 1.8425 0.51 0.935 0 0 Z " fill="#FCFCFC" transform="translate(396,91)"/>
<path d="M0 0 C15.95091893 0.93828935 30.57044676 10.24839647 41.83984375 21.078125 C43 23 43 23 42.69140625 25.734375 C42.34916016 26.85585938 42.34916016 26.85585938 42 28 C41.505 27.01 41.505 27.01 41 26 C40.01 26 39.02 26 38 26 C38 25.01 38 24.02 38 23 C37.12988281 22.61714844 37.12988281 22.61714844 36.2421875 22.2265625 C33.77653057 20.87775365 32.13330997 19.33642336 30.125 17.375 C21.49087944 9.5645291 11.06886355 4.43360665 0 1 C0 0.67 0 0.34 0 0 Z " fill="#595959" transform="translate(146,21)"/>
<path d="M0 0 C1.32 0.33 2.64 0.66 4 1 C6.13392475 8.59575595 6.3076135 15.96048355 6.26074219 23.80151367 C6.25003865 25.92981571 6.26067717 28.05727069 6.2734375 30.18554688 C6.27997684 37.6636088 5.91698628 44.74361742 4 52 C2.02 52.495 2.02 52.495 0 53 C0.48699371 52.14655251 0.48699371 52.14655251 0.98382568 51.27586365 C2.07861168 48.8239382 2.25318879 47.25292259 2.25878906 44.58618164 C2.26509338 43.72170914 2.27139771 42.85723663 2.27789307 41.96656799 C2.2738446 41.04045212 2.26979614 40.11433624 2.265625 39.16015625 C2.26753845 38.20104843 2.2694519 37.24194061 2.27142334 36.25376892 C2.27278313 34.2272007 2.26910109 32.20062371 2.26074219 30.17407227 C2.25005157 27.07743677 2.26063851 23.98138295 2.2734375 20.88476562 C2.27211564 18.91406122 2.2695527 16.94335718 2.265625 14.97265625 C2.26967346 14.04856461 2.27372192 13.12447296 2.27789307 12.17237854 C2.24524507 7.67923735 2.13645052 4.0771835 0 0 Z " fill="#E4E7E6" transform="translate(99,40)"/>
<path d="M0 0 C0.66 0.66 1.32 1.32 2 2 C1.67 2.66 1.34 3.32 1 4 C0.01 4.33 -0.98 4.66 -2 5 C-2.08507812 5.7528125 -2.17015625 6.505625 -2.2578125 7.28125 C-3.60074748 12.20063288 -7.86799532 14.3545462 -12 17 C-20.10929804 21.37831476 -29.60195733 25.74195074 -39 25 C-36.29842502 23.62833774 -33.57392889 22.34594036 -30.8046875 21.1171875 C-21.66429874 16.98810292 -13.34686433 12.99491873 -6 6 C-5.36449219 5.39542969 -4.72898438 4.79085937 -4.07421875 4.16796875 C-2.68774192 2.80699035 -1.33812166 1.40854912 0 0 Z " fill="#4E4E4E" transform="translate(184,184)"/>
<path d="M0 0 C6.18340402 0.60222453 11.62431748 2.41904677 17.4375 4.5625 C18.40091309 4.91602539 19.36432617 5.26955078 20.35693359 5.63378906 C26.41633759 7.90719624 32.32536062 10.37656411 38.125 13.25 C39.09070923 13.72481812 39.09070923 13.72481812 40.07592773 14.20922852 C43.59848375 16.02500357 46.60652636 17.8004342 49 21 C48.75 23.25 48.75 23.25 48 25 C46.5459375 23.7934375 46.5459375 23.7934375 45.0625 22.5625 C33.85939569 14.25304218 21.18047968 9.00988493 8.04833984 4.56298828 C7.1455127 4.25474121 6.24268555 3.94649414 5.3125 3.62890625 C4.50425781 3.36150635 3.69601562 3.09410645 2.86328125 2.81860352 C1 2 1 2 0 0 Z " fill="#626262" transform="translate(263,103)"/>
<path d="M0 0 C0 4.29 0 8.58 0 13 C1.09441406 12.96261719 2.18882812 12.92523438 3.31640625 12.88671875 C8.63979172 12.89023254 13.71975573 13.83037839 18.9375 14.8125 C19.87529297 14.97814453 20.81308594 15.14378906 21.77929688 15.31445312 C27.71773543 16.40805022 33.33079038 17.92102698 39 20 C35.30559946 21.23146685 33.58485151 20.63556928 29.8125 19.75 C28.56726563 19.47027344 27.32203125 19.19054687 26.0390625 18.90234375 C25.38067383 18.75394043 24.72228516 18.60553711 24.04394531 18.45263672 C12.47457527 15.7580392 12.47457527 15.7580392 0.6875 14.9375 C-3 15 -3 15 -6 13 C-7.40273786 7.9666465 -7.40273786 7.9666465 -7 5 C-5.38368785 2.87700693 -2.84254264 0 0 0 Z " fill="#666666" transform="translate(193,204)"/>
<path d="M0 0 C1.65 0 3.3 0 5 0 C5 1.32 5 2.64 5 4 C6.134375 4.20625 7.26875 4.4125 8.4375 4.625 C16.93472314 6.77562462 22.73840471 12.25436502 28 19 C27.34 19.99 26.68 20.98 26 22 C25.01 22 24.02 22 23 22 C21.5703125 20.390625 21.5703125 20.390625 20.125 18.25 C16.33268311 12.65477836 11.81542682 9.72843971 5.75 6.875 C0.11004785 4.22009569 0.11004785 4.22009569 -1 2 C-0.67 1.34 -0.34 0.68 0 0 Z " fill="#5A5A5A" transform="translate(4,5)"/>
<path d="M0 0 C0.53625 0.680625 1.0725 1.36125 1.625 2.0625 C2.40875 3.031875 3.1925 4.00125 4 5 C4.37769531 5.51949219 4.75539062 6.03898437 5.14453125 6.57421875 C9.95041319 12.80299021 16.49285049 16.7423547 23 21 C22.67 22.32 22.34 23.64 22 25 C22 24.34 22 23.68 22 23 C20.98164063 22.76796875 19.96328125 22.5359375 18.9140625 22.296875 C14.79360058 21.11486026 11.68549714 18.91106947 8.375 16.25 C7.8284375 15.83234375 7.281875 15.4146875 6.71875 14.984375 C2.93104686 12.01220603 -0.0244884 8.78299244 -3 5 C-2 3 -2 3 0 0 Z " fill="#5D5D5D" transform="translate(187,94)"/>
<path d="M0 0 C11.34609979 -0.58259819 21.51984515 4.88129979 30.046875 11.97265625 C32.14202941 14.14742653 33.55319865 16.35821399 35 19 C33.35 19.66 31.7 20.32 30 21 C26 16.25 26 16.25 26 14 C25.34 14 24.68 14 24 14 C24 13.34 24 12.68 24 12 C23.41734375 11.70867188 22.8346875 11.41734375 22.234375 11.1171875 C14.82291667 7.41145833 7.41145833 3.70572917 0 0 Z " fill="#5D5D5D" transform="translate(289,23)"/>
<path d="M0 0 C1.98 0.66 3.96 1.32 6 2 C6.33 9.59 6.66 17.18 7 25 C3 23 3 23 1 21 C0.68115234 18.84521484 0.68115234 18.84521484 0.5859375 16.2109375 C0.54726562 15.26992187 0.50859375 14.32890625 0.46875 13.359375 C0.4378125 12.37453125 0.406875 11.3896875 0.375 10.375 C0.33632812 9.38242188 0.29765625 8.38984375 0.2578125 7.3671875 C0.1633686 4.91164615 0.07780125 2.4561159 0 0 Z " fill="#D2D2D2" transform="translate(203,90)"/>
<path d="M0 0 C0.99 0.495 0.99 0.495 2 1 C2.29110843 5.95774687 2.57557062 10.91582012 2.85449219 15.87426758 C2.94977521 17.55275164 3.04671713 19.23114256 3.14550781 20.90942383 C3.66782862 29.80220212 4.10251518 38.68863314 4.1875 47.59765625 C4.20047119 48.31610214 4.21344238 49.03454803 4.22680664 49.77476501 C4.2300006 51.51814711 4.12422039 53.26104611 4 55 C3.34 55.66 2.68 56.32 2 57 C1.70939696 51.61495569 1.42488632 46.22963247 1.14550781 40.84399414 C1.05009043 39.02001715 0.95313888 37.19611964 0.85449219 35.37231445 C0.21732909 23.56854296 -0.13954028 11.82119396 0 0 Z " fill="#D7DADA" transform="translate(160,111)"/>
<path d="M0 0 C5.45304168 1.72201316 10.7034812 3.85276265 16 6 C16 11.28 16 16.56 16 22 C14.68 22 13.36 22 12 22 C11 20 11 20 10.78125 17.1015625 C10.49238695 13.53089422 10.11241607 10.41054695 9 7 C6.22215365 4.72582909 3.4824371 3.7667094 0 3 C0 2.01 0 1.02 0 0 Z " fill="#767676" transform="translate(226,88)"/>
<path d="M0 0 C1.66666667 0 3.33333333 0 5 0 C5.50534727 2.72827365 6.00443845 5.45744694 6.5 8.1875 C6.64308594 8.95642578 6.78617188 9.72535156 6.93359375 10.51757812 C7.63238715 14.39421773 8.19039017 18.041471 8 22 C6.02 21.67 4.04 21.34 2 21 C1.66034526 18.81347261 1.32857523 16.62571975 1 14.4375 C0.814375 13.21933594 0.62875 12.00117187 0.4375 10.74609375 C0.01444923 7.12372152 -0.07501425 3.64287954 0 0 Z " fill="#D4D4D4" transform="translate(234,72)"/>
<path d="M0 0 C4.15443538 1.38481179 4.65008292 3.43998734 6.6875 7.25 C7.62142578 8.95929687 7.62142578 8.95929687 8.57421875 10.703125 C10.47240594 15.09235785 10.49376527 17.51870418 9 22 C8.34 22.66 7.68 23.32 7 24 C6.57847656 22.92878906 6.15695313 21.85757813 5.72265625 20.75390625 C5.16940681 19.35671698 4.61601398 17.95958449 4.0625 16.5625 C3.78470703 15.85544922 3.50691406 15.14839844 3.22070312 14.41992188 C2.03777966 10.95326119 2.03777966 10.95326119 0 8 C-0.14115161 5.32941149 -0.04247107 2.67567762 0 0 Z " fill="#5A5B5B" transform="translate(191,50)"/>
<path d="M0 0 C0.66 0 1.32 0 2 0 C2.02511278 4.17683545 2.04305063 8.35362845 2.05493164 12.53051758 C2.05989558 13.94523893 2.06666892 15.35995533 2.07543945 16.7746582 C2.23703708 43.55233488 2.23703708 43.55233488 -2 50 C-2.66 49.67 -3.32 49.34 -4 49 C-3.52457764 48.02824829 -3.52457764 48.02824829 -3.03955078 47.03686523 C-1.71778816 43.17556761 -1.53885873 39.45001629 -1.3671875 35.41015625 C-1.32562531 34.58801132 -1.28406311 33.76586639 -1.24124146 32.91880798 C-1.11102643 30.30036177 -0.99302816 27.68152079 -0.875 25.0625 C-0.78852462 23.30530077 -0.70129281 21.54813859 -0.61328125 19.79101562 C-0.1142892 9.90062044 -0.1142892 9.90062044 0 0 Z " fill="#BDBDBD" transform="translate(101,116)"/>
<path d="M0 0 C0.66 0 1.32 0 2 0 C2 0.99 2 1.98 2 3 C2.99 3 3.98 3 5 3 C4.49202991 7.3177458 3.80317221 11.03302114 2 15 C0.68 15 -0.64 15 -2 15 C-2 15.66 -2 16.32 -2 17 C-2.66 17 -3.32 17 -4 17 C-4 18.65 -4 20.3 -4 22 C-4.33 22 -4.66 22 -5 22 C-5.27800952 16.59271482 -4.43460939 12.66573226 -2.5 7.625 C-0.82920739 3.92607957 -0.82920739 3.92607957 0 0 Z " fill="#494949" transform="translate(182,44)"/>
<path d="M0 0 C2 3 2 3 2 7 C2.66 7.33 3.32 7.66 4 8 C3.34 8 2.68 8 2 8 C1.896875 8.71542969 1.79375 9.43085938 1.6875 10.16796875 C0.92025497 13.32849516 -0.29737354 15.54982486 -2 18.3125 C-2.53625 19.19550781 -3.0725 20.07851562 -3.625 20.98828125 C-4.305625 21.98408203 -4.305625 21.98408203 -5 23 C-5.33 23 -5.66 23 -6 23 C-6.65255207 15.03886479 -4.52460738 10.04921476 -1 3 C-0.67 2.01 -0.34 1.02 0 0 Z " fill="#D2D2D2" transform="translate(197,160)"/>
<path d="M0 0 C0.85734704 2.40145 1.13580591 3.61503367 0.27490234 6.05541992 C-0.11745605 6.77318604 -0.50981445 7.49095215 -0.9140625 8.23046875 C-1.56181641 9.43606445 -1.56181641 9.43606445 -2.22265625 10.66601562 C-2.68542969 11.49810547 -3.14820313 12.33019531 -3.625 13.1875 C-4.06457031 14.00025391 -4.50414062 14.81300781 -4.95703125 15.65039062 C-6.29058323 18.10827162 -7.64504907 20.55386582 -9 23 C-9.44802979 23.82894775 -9.89605957 24.65789551 -10.35766602 25.51196289 C-10.79006592 26.30723389 -11.22246582 27.10250488 -11.66796875 27.921875 C-12.05235107 28.63311523 -12.4367334 29.34435547 -12.83276367 30.07714844 C-14.55378414 32.91227858 -16.4599099 34.8718164 -19 37 C-19.66 37 -20.32 37 -21 37 C-21 37.66 -21 38.32 -21 39 C-21.66 39 -22.32 39 -23 39 C-22 36 -22 36 -19.67578125 34.2734375 C-16.40900057 31.49786617 -14.93195743 28.44228332 -13.1875 24.625 C-12.5060719 23.19625759 -11.82109079 21.76920506 -11.1328125 20.34375 C-10.78508789 19.62316406 -10.43736328 18.90257813 -10.07910156 18.16015625 C-7.77981115 13.55741382 -5.15338565 9.14025949 -2.56640625 4.6953125 C-1.67018336 3.15318333 -0.79766883 1.59533767 0 0 Z " fill="#848484" transform="translate(371,32)"/>
<path d="M0 0 C0.99 0.33 1.98 0.66 3 1 C2.61328125 1.4846875 2.2265625 1.969375 1.828125 2.46875 C-1.77941954 7.11212416 -4.52402614 11.66713323 -7 17 C-7.99 16.34 -8.98 15.68 -10 15 C-9.53829217 10.29058015 -8.98551094 6.75953229 -6 3 C-3.9375 2.3125 -3.9375 2.3125 -2 2 C-1.34 1.34 -0.68 0.68 0 0 Z " fill="#686868" transform="translate(214,21)"/>
<path d="M0 0 C6.54447836 1.15997708 12.12162794 3.17799423 18.0625 6.125 C18.83271484 6.49753906 19.60292969 6.87007812 20.39648438 7.25390625 C22.26844199 8.16081739 24.13483689 9.07919617 26 10 C26 10.99 26 11.98 26 13 C21.8428187 13 18.85320804 11.06471879 15.25 9.1875 C10.23058031 6.59819115 5.2184064 4.16522883 0 2 C0 1.34 0 0.68 0 0 Z " fill="#5A5A5A" transform="translate(261,135)"/>
<path d="M0 0 C-8.38706702 6.12672272 -15.50341158 9.57254119 -26 9 C-26 8.67 -26 8.34 -26 8 C-25.12601562 7.77957031 -25.12601562 7.77957031 -24.234375 7.5546875 C-17.88821999 5.81847528 -12.41700858 3.29702322 -6.6640625 0.109375 C-3.81960987 -1.07511847 -2.80032942 -1.14136649 0 0 Z " fill="#5B5B5B" transform="translate(292,201)"/>
<path d="M0 0 C2.9375 1.3125 2.9375 1.3125 6 3 C7.32757546 6.98272639 6.3296542 9.0810192 5 13 C4.01 14.485 4.01 14.485 3 16 C2.34 15.67 1.68 15.34 1 15 C0.68758629 12.45058627 0.48696579 9.99638487 0.375 7.4375 C0.33632812 6.72658203 0.29765625 6.01566406 0.2578125 5.28320312 C0.16328217 3.52257575 0.08054183 1.76132272 0 0 Z " fill="#515151" transform="translate(203,114)"/>
<path d="M0 0 C5.875 1.875 5.875 1.875 7 3 C7.23363881 4.84891946 7.41303635 6.70488031 7.5625 8.5625 C7.68818359 10.08037109 7.68818359 10.08037109 7.81640625 11.62890625 C7.87699219 12.41136719 7.93757812 13.19382812 8 14 C5.45769108 12.78411313 3.90219481 12.01349344 2 10 C0.88726705 6.71331656 0.3810238 3.44235291 0 0 Z " fill="#656565" transform="translate(200,79)"/>
<path d="M0 0 C12.98140581 0.6446246 25.78257555 2.41846583 38 7 C34.36773913 8.21075362 32.8286796 7.68734998 29.125 6.8125 C22.64728191 5.34276564 16.15257945 4.04214976 9.625 2.8125 C8.67898926 2.63372314 7.73297852 2.45494629 6.75830078 2.27075195 C4.50578895 1.84579268 2.25303742 1.42216232 0 1 C0 0.67 0 0.34 0 0 Z " fill="#BABBBB" transform="translate(194,217)"/>
<path d="M0 0 C-1.3697164 3.99500618 -3.25722422 6.80009492 -6 10 C-9.875 8.25 -9.875 8.25 -11 6 C-10.360625 5.38125 -9.72125 4.7625 -9.0625 4.125 C-6.96116416 2.17402388 -6.96116416 2.17402388 -6 0 C-2.49056604 -1.24528302 -2.49056604 -1.24528302 0 0 Z " fill="#626262" transform="translate(227,186)"/>
<path d="M0 0 C2.15625 1.14453125 2.15625 1.14453125 4.5 2.8125 C5.66015625 3.62654297 5.66015625 3.62654297 6.84375 4.45703125 C7.5553125 4.96621094 8.266875 5.47539063 9 6 C9.99 6.66 10.98 7.32 12 8 C11.67 9.32 11.34 10.64 11 12 C11 11.34 11 10.68 11 10 C9.989375 9.773125 8.97875 9.54625 7.9375 9.3125 C3.5434382 8.06602124 0.52574387 5.87815827 -3 3 C-3 2.34 -3 1.68 -3 1 C-2.01 0.67 -1.02 0.34 0 0 Z " fill="#656565" transform="translate(198,107)"/>
<path d="M0 0 C1.32 0 2.64 0 4 0 C4 4.62 4 9.24 4 14 C3.01 14 2.02 14 1 14 C0.06380187 10.84493858 -0.1057123 8.03413498 -0.0625 4.75 C-0.05347656 3.85796875 -0.04445312 2.9659375 -0.03515625 2.046875 C-0.02355469 1.37140625 -0.01195312 0.6959375 0 0 Z " fill="#555555" transform="translate(238,96)"/>
<path d="M0 0 C0.33 0.66 0.66 1.32 1 2 C2.32859716 2.67605608 3.66294764 3.34082384 5 4 C6.60732981 5.1762248 8.19024962 6.3863747 9.75 7.625 C10.54921875 8.25664063 11.3484375 8.88828125 12.171875 9.5390625 C12.77515625 10.02117188 13.3784375 10.50328125 14 11 C13.34 13.31 12.68 15.62 12 18 C11.34 17.01 10.68 16.02 10 15 C8.70129917 13.09468731 7.38728765 11.19976732 6.0625 9.3125 C5.37285156 8.31863281 4.68320313 7.32476562 3.97265625 6.30078125 C3.32167969 5.54152344 2.67070312 4.78226563 2 4 C1.01 4 0.02 4 -1 4 C-0.67 2.68 -0.34 1.36 0 0 Z " fill="#D9D9D9" transform="translate(211,28)"/>
<path d="M0 0 C0.66 0.66 1.32 1.32 2 2 C1.67 2.66 1.34 3.32 1 4 C0.01 4.33 -0.98 4.66 -2 5 C-2.1546875 6.175625 -2.1546875 6.175625 -2.3125 7.375 C-3 10 -3 10 -6 12 C-6.66 11.67 -7.32 11.34 -8 11 C-9.79540511 11.76501555 -9.79540511 11.76501555 -11.625 12.9375 C-12.73875 13.618125 -13.8525 14.29875 -15 15 C-15 14.34 -15 13.68 -15 13 C-13.2421875 11.484375 -13.2421875 11.484375 -10.875 9.75 C-6.89365849 6.74984218 -3.43255356 3.60858194 0 0 Z " fill="#454545" transform="translate(184,184)"/>
<path d="M0 0 C0.33 0 0.66 0 1 0 C1.11594584 3.93725326 1.18716464 7.87406923 1.25 11.8125 C1.28351563 12.93205078 1.31703125 14.05160156 1.3515625 15.20507812 C1.36445313 16.27822266 1.37734375 17.35136719 1.390625 18.45703125 C1.4220459 19.9416687 1.4220459 19.9416687 1.45410156 21.45629883 C1 24 1 24 -1.02441406 25.84643555 C-1.67635742 26.22711182 -2.32830078 26.60778809 -3 27 C-3.25306122 21.43265306 -3.25306122 21.43265306 -2.03125 19.34375 C-0.45081832 15.75185982 -0.52963792 12.1352777 -0.375 8.25 C-0.33632812 7.45722656 -0.29765625 6.66445312 -0.2578125 5.84765625 C-0.163892 3.89880584 -0.08087178 1.94943549 0 0 Z " fill="#7F7F7F" transform="translate(190,160)"/>
<path d="M0 0 C0.33 0 0.66 0 1 0 C1.39632989 3.37284823 1.76320925 6.74828636 2.125 10.125 C2.23714844 11.07632813 2.34929687 12.02765625 2.46484375 13.0078125 C3.00615293 18.20438062 3.22409789 22.10698465 1 27 C0.67 27 0.34 27 0 27 C0 18.09 0 9.18 0 0 Z " fill="#E8ECED" transform="translate(367,118)"/>
<path d="M0 0 C5.32697239 1.45281065 8.36402802 5.08111378 12 9 C11.67 9.66 11.34 10.32 11 11 C7.08149058 9.34216909 4.09708904 6.89061644 1 4 C0.125 1.6875 0.125 1.6875 0 0 Z " fill="#585858" transform="translate(311,124)"/>
<path d="M0 0 C6.6772895 0.60702632 12.70127996 2.77631394 19 5 C19 5.66 19 6.32 19 7 C14.73378623 6.37957611 10.78050867 5.41324383 6.6875 4.0625 C5.63949219 3.72347656 4.59148437 3.38445312 3.51171875 3.03515625 C1 2 1 2 0 0 Z " fill="#6D6E6D" transform="translate(263,103)"/>
<path d="M0 0 C0.66 0.33 1.32 0.66 2 1 C2 1.66 2 2.32 2 3 C-0.08203125 4.47265625 -0.08203125 4.47265625 -2.8125 6.0625 C-3.70582031 6.58972656 -4.59914062 7.11695313 -5.51953125 7.66015625 C-8 9 -8 9 -11 10 C-8.48019048 4.60040817 -5.17487216 2.67984451 0 0 Z " fill="#5E5E5E" transform="translate(176,194)"/>
<path d="M0 0 C0.66 0.33 1.32 0.66 2 1 C2.35356863 2.32811073 2.68250359 3.66280708 3 5 C4.24856636 7.5912869 5.59285772 10.11968948 6.94140625 12.66015625 C8 15 8 15 8 18 C6.68 17.67 5.36 17.34 4 17 C4.66 17 5.32 17 6 17 C5.48308594 16.02417969 4.96617187 15.04835938 4.43359375 14.04296875 C3.76770467 12.75808418 3.10236872 11.47291285 2.4375 10.1875 C2.09525391 9.54490234 1.75300781 8.90230469 1.40039062 8.24023438 C0.5234977 6.53073605 -0.24515617 4.76678706 -1 3 C-0.67 2.01 -0.34 1.02 0 0 Z " fill="#EEEFEF" transform="translate(381,25)"/>
<path d="M0 0 C6.83981276 0.51621228 12.63876684 2.48590969 19 5 C18.67 5.66 18.34 6.32 18 7 C13.82423832 6.31583566 10.11919593 4.98634991 6.1875 3.4375 C5.02605469 2.98246094 3.86460937 2.52742188 2.66796875 2.05859375 C1.34732422 1.53458984 1.34732422 1.53458984 0 1 C0 0.67 0 0.34 0 0 Z " fill="#6D6D6D" transform="translate(146,21)"/>
<path d="M0 0 C2.52490791 1.08210339 4.03546037 2.03774814 5.9375 4.0625 C8.30839468 6.28970409 9.81664932 6.64629437 13 7 C13 7.66 13 8.32 13 9 C12.01 9 11.02 9 10 9 C10.99 10.485 10.99 10.485 12 12 C11.67 12.99 11.34 13.98 11 15 C10.54109375 14.33613281 10.0821875 13.67226562 9.609375 12.98828125 C6.52665246 8.55201036 3.46146654 4.15375984 0 0 Z " fill="#676767" transform="translate(312,128)"/>
<path d="M0 0 C3 1 3 1 4.6875 4.0625 C5.120625 5.031875 5.55375 6.00125 6 7 C5.01 7.495 5.01 7.495 4 8 C2.86649466 10.01669827 2.86649466 10.01669827 2 12 C-0.60018816 8.09971775 -0.15085514 4.52565431 0 0 Z " fill="#5F5F5F" transform="translate(191,50)"/>
<path d="M0 0 C2.31 0.66 4.62 1.32 7 2 C7 3.98 7 5.96 7 8 C4.0625 6.8125 4.0625 6.8125 1 5 C0.125 2.3125 0.125 2.3125 0 0 Z " fill="#6E6E6E" transform="translate(231,66)"/>
<path d="M0 0 C1.92299676 3.17366759 2.19329046 4.95347267 1.375 8.5625 C0.59852327 11.66840692 0.22138753 12.78512387 -2.125 15.0625 C-2.74375 15.371875 -3.3625 15.68125 -4 16 C-4.75 14.25 -4.75 14.25 -5 12 C-4.38125 11.4225 -3.7625 10.845 -3.125 10.25 C-0.04973727 6.99383946 -0.29375655 4.40634819 0 0 Z " fill="#5B5B5B" transform="translate(186,177)"/>
<path d="M0 0 C0.99 0 1.98 0 3 0 C3 3.63 3 7.26 3 11 C2.67 11 2.34 11 2 11 C1.67 8.69 1.34 6.38 1 4 C0.443125 4.474375 -0.11375 4.94875 -0.6875 5.4375 C-3.22227195 7.15018375 -4.96117218 7.76009254 -8 8 C-8.66 7.34 -9.32 6.68 -10 6 C-8.3603125 5.62875 -8.3603125 5.62875 -6.6875 5.25 C-2.80058004 3.93240001 -2.16239317 3.24358975 0 0 Z " fill="#E7E9E8" transform="translate(140,57)"/>
<path d="M0 0 C0.99 0.33 1.98 0.66 3 1 C3.33 3.31 3.66 5.62 4 8 C3.01 8.495 3.01 8.495 2 9 C1.01 8.67 0.02 8.34 -1 8 C-1.04241723 5.66705225 -1.04092937 3.33297433 -1 1 C-0.67 0.67 -0.34 0.34 0 0 Z " fill="#545454" transform="translate(195,57)"/>
<path d="M0 0 C4.75 0.75 4.75 0.75 7 3 C7.40047444 5.32275177 7.7397104 7.65739357 8 10 C4.71211176 6.88983545 2.16264012 3.98381075 0 0 Z " fill="#494949" transform="translate(285,146)"/>
<path d="M0 0 C1.98 0.66 3.96 1.32 6 2 C6 3.65 6 5.3 6 7 C5.01 7.495 5.01 7.495 4 8 C1 6 1 6 0.3125 2.875 C0.209375 1.92625 0.10625 0.9775 0 0 Z " fill="#494949" transform="translate(186,211)"/>
<path d="M0 0 C2.875 0.25 2.875 0.25 6 1 C7.375 3.0625 7.375 3.0625 8 5 C8.66 5 9.32 5 10 5 C10 6.32 10 7.64 10 9 C9.01 9 8.02 9 7 9 C6.5875 8.071875 6.175 7.14375 5.75 6.1875 C4.06558214 3.11945319 2.91545917 1.80959535 0 0 Z " fill="#E9E9E9" transform="translate(133,67)"/>
<path d="M0 0 C1.65 0 3.3 0 5 0 C5.33 2.31 5.66 4.62 6 7 C0.125 4.25 0.125 4.25 -1 2 C-0.67 1.34 -0.34 0.68 0 0 Z " fill="#565656" transform="translate(4,5)"/>
<path d="M0 0 C0.33 0 0.66 0 1 0 C1 4.62 1 9.24 1 14 C0.34 14 -0.32 14 -1 14 C-1.22226864 12.23086176 -1.42733873 10.45955629 -1.625 8.6875 C-1.74101562 7.70136719 -1.85703125 6.71523437 -1.9765625 5.69921875 C-2 3 -2 3 0 0 Z " fill="#CBCDCC" transform="translate(153,121)"/>
<path d="M0 0 C0.99 0 1.98 0 3 0 C3 2.31 3 4.62 3 7 C1.68 7 0.36 7 -1 7 C-1.04254356 5.00045254 -1.04080783 2.99958364 -1 1 C-0.67 0.67 -0.34 0.34 0 0 Z " fill="#545454" transform="translate(239,129)"/>
<path d="M0 0 C1.32 1.32 2.64 2.64 4 4 C3.67 4.66 3.34 5.32 3 6 C2.34 6 1.68 6 1 6 C1.33 7.98 1.66 9.96 2 12 C-0.37555161 9.62444839 -0.36834858 8.69703006 -0.6875 5.4375 C-0.77386719 4.63183594 -0.86023438 3.82617188 -0.94921875 2.99609375 C-0.96597656 2.33738281 -0.98273438 1.67867187 -1 1 C-0.67 0.67 -0.34 0.34 0 0 Z " fill="#686868" transform="translate(224,40)"/>
<path d="M0 0 C3.53600465 1.91135386 5.78972846 3.62642766 8 7 C6.1875 7.625 6.1875 7.625 4 8 C1 6 1 6 0.3125 2.875 C0.209375 1.92625 0.10625 0.9775 0 0 Z " fill="#535353" transform="translate(190,101)"/>
<path d="M0 0 C6.33393082 -0.34548714 11.10261508 0.70657253 17 3 C13.09366863 4.30211046 10.80461827 3.47812346 6.8125 2.5625 C5.54019531 2.27503906 4.26789063 1.98757812 2.95703125 1.69140625 C1.98121094 1.46324219 1.00539062 1.23507813 0 1 C0 0.67 0 0.34 0 0 Z " fill="#747574" transform="translate(215,221)"/>
<path d="M0 0 C0.33 1.65 0.66 3.3 1 5 C-1.07553648 5.5534764 -2.84365964 6 -5 6 C-5 4.35 -5 2.7 -5 1 C-3 0 -3 0 0 0 Z " fill="#5B5B5B" transform="translate(328,47)"/>
<path d="M0 0 C2.0625 0.6875 2.0625 0.6875 4 2 C4.75 4.125 4.75 4.125 5 6 C0.25 5.125 0.25 5.125 -2 4 C-2 3.01 -2 2.02 -2 1 C-1.34 0.67 -0.68 0.34 0 0 Z " fill="#585858" transform="translate(201,75)"/>
<path d="M0 0 C1.32 1.65 2.64 3.3 4 5 C3.34 5 2.68 5 2 5 C2 6.98 2 8.96 2 11 C-1.2 6.2 -1.2 6.2 -2 4 C-1.125 1.75 -1.125 1.75 0 0 Z " fill="#BCBCBC" transform="translate(189,45)"/>
<path d="M0 0 C2.58464442 4.38008443 1.81479148 7.11125113 1 12 C-0.32 12.33 -1.64 12.66 -3 13 C-2.68289062 12.43796875 -2.36578125 11.8759375 -2.0390625 11.296875 C-0.93125475 8.84803683 -0.61024601 6.91612145 -0.375 4.25 C-0.30023438 3.45078125 -0.22546875 2.6515625 -0.1484375 1.828125 C-0.09945312 1.22484375 -0.05046875 0.6215625 0 0 Z " fill="#D5D6D6" transform="translate(102,80)"/>
<path d="M0 0 C3 1 3 1 4.203125 2.7421875 C4.54859375 3.44601563 4.8940625 4.14984375 5.25 4.875 C5.60578125 5.57367188 5.9615625 6.27234375 6.328125 6.9921875 C7 9 7 9 6 12 C3.71540242 9.71540242 3.02870252 7.87462656 1.875 4.875 C1.52179688 3.96492188 1.16859375 3.05484375 0.8046875 2.1171875 C0.53914063 1.41851562 0.27359375 0.71984375 0 0 Z " fill="#E7E8E9" transform="translate(383,13)"/>
<path d="M0 0 C0.66 0.66 1.32 1.32 2 2 C-1.3 4.64 -4.6 7.28 -8 10 C-8 7 -8 7 -6.25 5.17578125 C-5.5075 4.56089844 -4.765 3.94601563 -4 3.3125 C-3.2575 2.68988281 -2.515 2.06726563 -1.75 1.42578125 C-1.1725 0.95527344 -0.595 0.48476562 0 0 Z " fill="#D9D9D9" transform="translate(217,194)"/>
<path d="M0 0 C2.97 0.495 2.97 0.495 6 1 C5.01 1.66 4.02 2.32 3 3 C2.20201782 5.41607417 2.20201782 5.41607417 1.8125 8.125 C1.65394531 9.03507813 1.49539062 9.94515625 1.33203125 10.8828125 C1.22246094 11.58148438 1.11289063 12.28015625 1 13 C0.67 13 0.34 13 0 13 C0 8.71 0 4.42 0 0 Z " fill="#6C6C6C" transform="translate(236,127)"/>
<path d="M0 0 C2.31 0.66 4.62 1.32 7 2 C7.33 3.32 7.66 4.64 8 6 C2.25 4.125 2.25 4.125 0 3 C0 2.01 0 1.02 0 0 Z " fill="#656666" transform="translate(10,9)"/>
<path d="M0 0 C0.66 0.33 1.32 0.66 2 1 C1.40138258 3.35171131 0.73075648 5.6859378 0 8 C-0.99 8.495 -0.99 8.495 -2 9 C-2.125 5.625 -2.125 5.625 -2 2 C-1.34 1.34 -0.68 0.68 0 0 Z " fill="#585858" transform="translate(208,29)"/>
<path d="M0 0 C-0.33 0.99 -0.66 1.98 -1 3 C-3.75078884 3.91692961 -5.35948913 4.10886083 -8.1875 4.0625 C-10.0746875 4.0315625 -10.0746875 4.0315625 -12 4 C-12 3.67 -12 3.34 -12 3 C-10.37604003 2.49663233 -8.75079459 1.99741024 -7.125 1.5 C-6.22007812 1.2215625 -5.31515625 0.943125 -4.3828125 0.65625 C-2 0 -2 0 0 0 Z " fill="#6B6B6B" transform="translate(278,206)"/>
<path d="M0 0 C0.66 0 1.32 0 2 0 C2.66 1.98 3.32 3.96 4 6 C3.34 6.66 2.68 7.32 2 8 C1.34 7.67 0.68 7.34 0 7 C0 4.69 0 2.38 0 0 Z " fill="#535353" transform="translate(330,160)"/>
<path d="M0 0 C1.66666667 0 3.33333333 0 5 0 C5 1.65 5 3.3 5 5 C3.35 5 1.7 5 0 5 C0 3.35 0 1.7 0 0 Z " fill="#C7C7C7" transform="translate(234,72)"/>
<path d="M0 0 C0.33 0.99 0.66 1.98 1 3 C-0.32 4.32 -1.64 5.64 -3 7 C-4.32 6.34 -5.64 5.68 -7 5 C-4.69 3.35 -2.38 1.7 0 0 Z " fill="#444444" transform="translate(20,212)"/>
<path d="M0 0 C4.455 0.99 4.455 0.99 9 2 C8.01 3.485 8.01 3.485 7 5 C4.69 4.01 2.38 3.02 0 2 C0 1.34 0 0.68 0 0 Z " fill="#7E7E7E" transform="translate(261,135)"/>
<path d="M0 0 C3 3 3 3 3.1875 5.6875 C3.0946875 6.8321875 3.0946875 6.8321875 3 8 C2.01 8.33 1.02 8.66 0 9 C0 6.03 0 3.06 0 0 Z " fill="#BFC0C0" transform="translate(107,121)"/>
<path d="M0 0 C2 1 2 1 3.125 4.0625 C3.41375 5.031875 3.7025 6.00125 4 7 C3.34 7.66 2.68 8.32 2 9 C0.4375 6.1875 0.4375 6.1875 -1 3 C-0.67 2.01 -0.34 1.02 0 0 Z " fill="#EFF6F4" transform="translate(398,41)"/>
<path d="M0 0 C0.66 1.32 1.32 2.64 2 4 C0.02 4.99 0.02 4.99 -2 6 C-2.33 5.34 -2.66 4.68 -3 4 C-2.01 2.68 -1.02 1.36 0 0 Z " fill="#585858" transform="translate(221,190)"/>
<path d="M0 0 C0.66 0 1.32 0 2 0 C2.99 2.31 3.98 4.62 5 7 C4.01 7 3.02 7 2 7 C0.5393715 4.35261084 0 3.10551666 0 0 Z " fill="#F1F4F5" transform="translate(404,56)"/>
<path d="M0 0 C1.485 0.99 1.485 0.99 3 2 C2.67 3.65 2.34 5.3 2 7 C1.67 6.34 1.34 5.68 1 5 C0.34 5 -0.32 5 -1 5 C-0.67 3.35 -0.34 1.7 0 0 Z " fill="#6E6E6E" transform="translate(186,42)"/>
<path d="M0 0 C1.32 0.66 2.64 1.32 4 2 C3.34 3.98 2.68 5.96 2 8 C0.26216175 5.39324263 -0.50215905 3.98704569 -1 1 C-0.67 0.67 -0.34 0.34 0 0 Z " fill="#C8C8C8" transform="translate(221,38)"/>
<path d="M0 0 C0.99 0.33 1.98 0.66 3 1 C2.67 2.32 2.34 3.64 2 5 C1.01 5 0.02 5 -1 5 C-0.67 3.35 -0.34 1.7 0 0 Z " fill="#3C3C3C" transform="translate(329,189)"/>
<path d="M0 0 C1.32 0 2.64 0 4 0 C3.34 1.32 2.68 2.64 2 4 C1.01 4 0.02 4 -1 4 C-0.67 2.68 -0.34 1.36 0 0 Z " fill="#626262" transform="translate(182,188)"/>
<path d="M0 0 C2.475 0.495 2.475 0.495 5 1 C5.33 1.99 5.66 2.98 6 4 C5.01 4.33 4.02 4.66 3 5 C3 4.34 3 3.68 3 3 C2.01 2.67 1.02 2.34 0 2 C0 1.34 0 0.68 0 0 Z " fill="#555555" transform="translate(322,137)"/>
<path d="M0 0 C1.98 0.66 3.96 1.32 6 2 C6 2.99 6 3.98 6 5 C4.02 4.34 2.04 3.68 0 3 C0 2.01 0 1.02 0 0 Z " fill="#868686" transform="translate(226,88)"/>
<path d="M0 0 C0.33 0 0.66 0 1 0 C1 2.31 1 4.62 1 7 C-0.65 7 -2.3 7 -4 7 C-4 6.34 -4 5.68 -4 5 C-3.01 5 -2.02 5 -1 5 C-0.67 3.35 -0.34 1.7 0 0 Z " fill="#666666" transform="translate(331,60)"/>
<path d="M0 0 C3.15140423 0.34069235 4.60781561 0.58076841 6.8125 2.9375 C8 5 8 5 8 7 C7.34 7 6.68 7 6 7 C4.62517293 5.36739286 3.29352333 3.69774938 2 2 C1.34 1.34 0.68 0.68 0 0 Z " fill="#E3E3E3" transform="translate(137,42)"/>
</svg>
